<svg xmlns="http://www.w3.org/2000/svg" viewBox="0 0 845.32 833.68"><defs><style>.cls-1,.cls-12,.cls-5,.cls-7,.cls-9{fill:blue;}.cls-1,.cls-16{opacity:0.1;}.cls-10,.cls-13,.cls-2,.cls-3,.cls-8{fill:#fff;}.cls-11,.cls-12,.cls-13,.cls-14,.cls-2,.cls-3,.cls-4,.cls-5,.cls-6,.cls-8,.cls-9{stroke:blue;}.cls-13,.cls-14,.cls-17,.cls-2,.cls-4,.cls-5{stroke-miterlimit:10;}.cls-11,.cls-13,.cls-14,.cls-3{stroke-linecap:round;}.cls-11,.cls-12,.cls-3,.cls-6,.cls-8,.cls-9{stroke-linejoin:round;}.cls-11,.cls-14,.cls-17,.cls-4,.cls-6{fill:none;}.cls-12{stroke-width:0.75px;}.cls-15{fill:#0e0ee0;}.cls-17{stroke:#fff;stroke-width:3px;}</style></defs><title>Asset 1</title><g id="Layer_2" data-name="Layer 2"><g id="Layer_1-2" data-name="Layer 1"><polygon class="cls-1" points="100.48 548.4 80.43 559.43 173.71 614.09 254.68 566.77 245.07 559.51 260.86 564.33 372.53 500.23 100.48 548.4"/><polygon class="cls-2" points="261.03 557.83 390.33 483.19 390.33 383.65 325.68 346.33 196.39 420.98 196.39 520.51 261.03 557.83"/><polyline class="cls-2" points="261.03 557.83 261.03 458.3 390.33 383.65"/><line class="cls-2" x1="196.39" y1="420.98" x2="261.03" y2="458.3"/><polygon class="cls-3" points="210.49 419.98 325.36 353.65 376.61 383.78 263.16 449.28 210.49 419.98"/><path class="cls-2" d="M246.76,421l2.53-168.86h23.49L275.31,421c0,4.78-6.39,8.65-14.27,8.65S246.76,425.76,246.76,421Z"/><ellipse class="cls-4" cx="261.04" cy="252.12" rx="11.74" ry="7.12"/><ellipse class="cls-5" cx="261.04" cy="252.12" rx="11.74" ry="7.12"/><path class="cls-2" d="M311.41,383.65c0,4.78,6.39,8.66,14.27,8.66S340,388.43,340,383.65L337.43,214.8H313.94Z"/><ellipse class="cls-4" cx="325.68" cy="214.8" rx="11.74" ry="7.12"/><ellipse class="cls-5" cx="325.68" cy="214.8" rx="11.74" ry="7.12"/><polygon class="cls-6" points="213.16 453.35 244.26 471.31 244.26 531.17 213.16 513.22 213.16 453.35"/><polyline class="cls-6" points="244.26 523.51 219.78 509.05 219.78 457.18"/><line class="cls-4" x1="219.79" y1="483.95" x2="244.26" y2="498.08"/><line class="cls-4" x1="219.79" y1="469.28" x2="244.18" y2="483.36"/><line class="cls-4" x1="219.79" y1="497.28" x2="244.26" y2="511.41"/><polyline class="cls-6" points="282.59 545.39 282.59 495.63 304.13 483.19 304.13 532.95"/><path class="cls-7" d="M288.45,514.84a2.26,2.26,0,0,1,2.57,2.41,3.19,3.19,0,0,1-2.58,3.15,2.28,2.28,0,0,1-2.57-2.42A3.2,3.2,0,0,1,288.45,514.84Z"/><path class="cls-8" d="M155.36,393.12c77.25,44.61,77.26,89.21,77.26,89.21v89.2L174.68,605,97.42,560.38V426.57Z"/><polyline class="cls-9" points="130.34 481.62 122.36 486.22 106.42 477.01"/><polygon class="cls-9" points="114.39 472.41 106.42 477.01 106.42 495.43 122.36 504.63 130.34 500.03 130.34 481.62 114.39 472.41"/><line class="cls-9" x1="122.36" y1="486.22" x2="122.36" y2="504.63"/><polygon class="cls-6" points="138.12 520.24 161.29 533.62 161.29 578.22 138.12 564.85 138.12 520.24"/><polyline class="cls-6" points="161.29 572.52 143.06 561.74 143.06 523.09"/><path class="cls-6" d="M97.42,426.57c77.26,44.61,77.26,89.21,77.26,89.21V605"/><ellipse class="cls-4" cx="155.36" cy="382.79" rx="7.33" ry="4.45"/><path class="cls-2" d="M162.69,382.79l4.86,33c0,4.08-5.46,7.38-12.19,7.38s-12.18-3.3-12.18-7.38l4.85-33Z"/><ellipse class="cls-5" cx="155.36" cy="382.79" rx="7.33" ry="4.45"/><line class="cls-4" x1="143.06" y1="543.04" x2="161.29" y2="553.57"/><line class="cls-4" x1="143.06" y1="532.11" x2="161.23" y2="542.6"/><line class="cls-4" x1="143.06" y1="552.97" x2="161.29" y2="563.5"/><polyline class="cls-6" points="195.43 592.99 195.43 539.48 218.71 526.04 218.71 579.56"/><path class="cls-7" d="M200.61,561.89a1.68,1.68,0,0,1,1.91,1.79A2.38,2.38,0,0,1,200.6,566a1.7,1.7,0,0,1-1.92-1.81A2.37,2.37,0,0,1,200.61,561.89Z"/><path class="cls-7" d="M180.16,511.11l48-27.71a1.5,1.5,0,0,0-1.52-2.59l-48,27.7a1.51,1.51,0,0,0,1.52,2.6Z"/><path class="cls-7" d="M175.22,497.25l48-27.7a1.5,1.5,0,0,0-1.51-2.6l-48,27.71a1.5,1.5,0,0,0,1.51,2.59Z"/><path class="cls-7" d="M169.4,485l48-27.71a1.5,1.5,0,0,0-1.52-2.59l-48,27.71A1.5,1.5,0,0,0,169.4,485Z"/><ellipse class="cls-1" cx="457.22" cy="626.33" rx="94.4" ry="57.25"/><path class="cls-10" d="M367.82,624.62c3.34,28.18,42.09,50.41,89.4,50.41s86.07-22.23,89.41-50.41l20.9-213.24H346.92Z"/><path class="cls-7" d="M457.22,675.53c-47,0-86.52-22.34-89.9-50.85h0c0-.32-20.69-211.11-20.9-213.24l-.05-.55H568.08l-21,213.79C543.75,653.19,504.26,675.53,457.22,675.53Zm-88.9-51c3.32,28,42.37,50,88.9,50s85.59-21.95,88.91-50L567,411.88H347.47l17.58,179.37c2.6,26.56,3.15,32.09,3.18,33.32Z"/><path class="cls-10" d="M571.67,350.18l7.55,31.87c-2.08,39.77-55.91,71.62-122,71.62s-119.91-31.85-122-71.62l7.42-31.28"/><path class="cls-7" d="M457.22,454.17c-32,0-62.28-7.45-85.25-21s-36.22-31.69-37.25-51.13V382l7.43-31.34,1,.23-7.4,31.2c1,19.07,14.08,36.91,36.75,50.25s52.92,20.83,84.74,20.83,61.93-7.4,84.75-20.83c22.67-13.34,35.72-31.18,36.75-50.25l-7.54-31.79,1-.23L579.73,382v.07c-1,19.44-14.24,37.6-37.24,51.13S489.23,454.17,457.22,454.17Z"/><path class="cls-10" d="M341.31,356.38c16.08-29.48,61.9-50.76,115.91-50.76s99.84,21.28,115.92,50.76"/><path class="cls-7" d="M572.7,356.62c-16.47-30.2-62.88-50.5-115.48-50.5s-99,20.3-115.47,50.5l-.88-.48c16.65-30.51,63.4-51,116.35-51s99.71,20.51,116.36,51Z"/><ellipse class="cls-10" cx="457.22" cy="361.54" rx="115.94" ry="70.31"/><path class="cls-7" d="M457.22,432.35c-64.2,0-116.43-31.76-116.43-70.81S393,290.73,457.22,290.73s116.44,31.77,116.44,70.81S521.43,432.35,457.22,432.35Zm0-140.62c-63.65,0-115.43,31.32-115.43,69.81s51.78,69.81,115.43,69.81S572.66,400,572.66,361.54,520.88,291.73,457.22,291.73Z"/><ellipse class="cls-10" cx="457.22" cy="326.18" rx="97.21" ry="58.95"/><path class="cls-7" d="M457.22,385.64c-53.87,0-97.71-26.67-97.71-59.46s43.84-59.45,97.71-59.45,97.72,26.67,97.72,59.45S511.1,385.64,457.22,385.64Zm0-117.91c-53.32,0-96.71,26.22-96.71,58.45s43.39,58.46,96.71,58.46,96.72-26.23,96.72-58.46S510.55,267.73,457.22,267.73Z"/><ellipse class="cls-10" cx="457.22" cy="326.18" rx="71.68" ry="43.47"/><path class="cls-7" d="M457.22,370.15c-39.8,0-72.18-19.72-72.18-44s32.38-44,72.18-44,72.18,19.73,72.18,44S497,370.15,457.22,370.15Zm0-86.94c-39.24,0-71.18,19.28-71.18,43s31.94,43,71.18,43,71.18-19.27,71.18-43S496.47,283.21,457.22,283.21Z"/><path class="cls-7" d="M457.22,415.64c-58.57,0-106.22-29-106.22-64.62l0-.13,10.09-35.47,1,.28L352,351.09c.06,35.05,47.24,63.55,105.22,63.55s105.16-28.5,105.23-63.55L552.38,315.7l1-.28L563.45,351C563.45,386.65,515.8,415.64,457.22,415.64Z"/><path class="cls-7" d="M409.66,363.28c2.73,1.58,2.75,4.15,0,5.73a10.91,10.91,0,0,1-9.89,0l-15.94-9.21c-2.74-1.58-2.75-4.14,0-5.72a10.89,10.89,0,0,1,9.88,0Z"/><ellipse class="cls-10" cx="457.22" cy="326.18" rx="71.68" ry="43.47"/><path class="cls-7" d="M457.22,370.15c-39.8,0-72.18-19.72-72.18-44s32.38-44,72.18-44,72.18,19.73,72.18,44S497,370.15,457.22,370.15Zm0-86.94c-39.24,0-71.18,19.28-71.18,43s31.94,43,71.18,43,71.18-19.27,71.18-43S496.47,283.21,457.22,283.21Z"/><path class="cls-7" d="M552.44,565.39c-17.88,20.83-53.81,35.06-95.22,35.06S379.89,586.22,362,565.39L350.72,450.18c6.36,32.25,51.62,57.24,106.5,57.24s100.14-25,106.5-57.23Z"/><path class="cls-7" d="M457.22,601c-40.31,0-76.93-13.5-95.59-35.24l-.1-.12v-.15L350.23,450.23l1-.15c6.4,32.41,52,56.84,106,56.84s99.62-24.43,106-56.83l1,.14-11.3,115.36-.11.12C534.16,587.44,497.53,601,457.22,601ZM362.5,565.18C381,586.63,417.27,600,457.22,600s76.23-13.32,94.73-34.77l10.7-109.13C552.24,486,508.5,507.92,457.22,507.92s-95-21.92-105.42-51.87Z"/><rect class="cls-7" x="406.11" y="295.4" width="1" height="12.29"/><path class="cls-7" d="M416.47,362.49c-14-8.34-21.76-19.52-21.76-31.49,0-8.46,3.94-16.67,11.4-23.75V295.11l.75-.14,103.8,59.92-.5.87-103-59.49v11.41l-.15.15c-7.36,6.92-11.25,14.93-11.25,23.17,0,11.6,7.55,22.47,21.27,30.63Z"/><line class="cls-10" x1="406.61" y1="307.28" x2="499.88" y2="361.12"/><rect class="cls-7" x="452.75" y="280.35" width="1" height="107.69" transform="translate(-62.8 559.62) rotate(-60)"/><path class="cls-1" d="M698.6,628.87c-45.54,0-82.47,18.61-82.47,41.56a23.21,23.21,0,0,0,3.32,11.67c-3.17-.2-6.41-.32-9.69-.32-43,0-77.83,17.56-77.83,39.22s34.84,39.21,77.83,39.21,77.83-17.56,77.83-39.21a21.26,21.26,0,0,0-2.35-9.57c4.35.35,8.81.55,13.36.55,45.55,0,82.47-18.61,82.47-41.55S744.15,628.87,698.6,628.87Z"/><ellipse class="cls-2" cx="704.86" cy="485.72" rx="39.63" ry="24.03"/><path class="cls-2" d="M748.51,485.72l23.34,171.77c0,22.44-30,40.63-67,40.63s-67-18.19-67-40.63L661.2,485.72Z"/><ellipse class="cls-5" cx="704.86" cy="485.72" rx="43.66" ry="26.48"/><circle class="cls-7" cx="701.53" cy="470.96" r="20.5"/><circle class="cls-7" cx="678.04" cy="485.14" r="17.6"/><circle class="cls-7" cx="699.21" cy="492.01" r="17.6"/><circle class="cls-7" cx="722.03" cy="489.66" r="17.6"/><circle class="cls-7" cx="719.09" cy="458.59" r="24.83"/><circle class="cls-7" cx="712.21" cy="432.45" r="7.85"/><circle class="cls-7" cx="727.81" cy="408.85" r="5.03"/><circle class="cls-7" cx="627.49" cy="457.83" r="5.03"/><circle class="cls-7" cx="612.61" cy="410.88" r="5.03"/><circle class="cls-7" cx="661.2" cy="411.88" r="6.98"/><circle class="cls-7" cx="603.41" cy="487.56" r="6.98"/><circle class="cls-7" cx="736.37" cy="372.97" r="7.44"/><polygon class="cls-3" points="606.62 128.19 621.04 119.86 736.37 186.45 736.37 203.09 721.95 211.42 606.62 144.83 606.62 128.19"/><polyline class="cls-11" points="606.63 128.19 721.95 194.77 721.95 211.42"/><line class="cls-11" x1="736.37" y1="186.45" x2="721.95" y2="194.77"/><polygon class="cls-3" points="621.04 190.62 621.04 282.18 642.66 294.66 649.87 290.5 649.87 198.94 628.25 186.46 621.04 190.62"/><polygon class="cls-12" points="636.9 195.6 634.01 193.94 634.01 144 648.43 135.68 651.31 137.34 636.9 145.67 636.9 195.6"/><polygon class="cls-3" points="678.7 290.49 678.7 382.04 700.33 394.52 707.54 390.36 707.54 298.81 685.91 286.33 678.7 290.49"/><polygon class="cls-12" points="691.68 293.82 691.68 177.29 706.09 168.97 708.98 170.64 694.56 178.96 694.56 295.48 691.68 293.82"/><polyline class="cls-11" points="649.87 198.94 642.66 203.1 621.04 190.62"/><line class="cls-11" x1="642.66" y1="203.11" x2="642.66" y2="294.66"/><path class="cls-7" d="M631.21,221.58a41.71,41.71,0,0,0,4.94,7.77,1.6,1.6,0,0,0-.51.46,44,44,0,0,1-4.89-7.85,8.09,8.09,0,0,1-4.8,2.35,9.53,9.53,0,0,0-.48-1,7.19,7.19,0,0,0,4.88-2.54l1.09.72C631.42,221.62,631.33,221.62,631.21,221.58Z"/><polygon class="cls-7" points="628.27 223.89 633.34 226.81 633.33 227.63 628.26 224.71 628.27 223.89"/><path class="cls-7" d="M627.88,254.86l.51.85a9.41,9.41,0,0,0-1.17,2.8,2.35,2.35,0,0,0,.11.7l-.77-.35a19.22,19.22,0,0,1-.48-4.87,31.35,31.35,0,0,1,.63-5.73l1.1.88c0,.12-.14.14-.3.06a23.31,23.31,0,0,0-.67,5.24,17.9,17.9,0,0,0,.09,2.52C627.19,256.33,627.65,255.34,627.88,254.86Z"/><path class="cls-7" d="M627.15,234.14l7.36,4.25,0,11-.8-.46v-.79l-5.78-3.34v.87l-.78-.45Zm6.54,13.09v-3.81l-5.79-3.34v3.81l5.79,3.34m0-4.67v-3.74l-5.78-3.34v3.74l5.78,3.34"/><path class="cls-7" d="M633.88,229.7l.14,0,.55.56a.31.31,0,0,1-.11.14c-.48.92-1.38,2.57-2.12,3.77l-.78-.69c.61-1,1.35-2.31,1.85-3.26l-6.62-3.82v-.83Z"/><path class="cls-7" d="M633.28,259.61a19,19,0,0,1,2.31,3l-.45.58a16.37,16.37,0,0,0-1.83-2.55c0,1.1-.2,2.24-1.9,1.25a4,4,0,0,1-2.21-3.15c0-1.33,1.18-1.24,2.22-.64a6.17,6.17,0,0,1,1.08.79c0-.84-.1-2.25-.15-3.56-.35-.17-.83-.43-1.16-.62l-1.72-1v-.86c.37.23.74.45,1.12.66.58.34,1.16.66,1.74.94,0-1.14-.08-2.13-.1-3.11l1.15.71c0,.12-.11.17-.3.1,0,.84,0,1.7,0,2.7a9.16,9.16,0,0,0,2.23.76l.09,1a10.34,10.34,0,0,1-2.29-.85C633.19,257.2,633.24,258.76,633.28,259.61Zm-1.87,1.47c.84.48,1.15.19,1.15-.85v-.47a6.35,6.35,0,0,0-1.12-.88c-.69-.4-1.52-.59-1.52.23a2.65,2.65,0,0,0,1.5,2"/><polyline class="cls-11" points="707.54 298.81 700.33 302.97 678.7 290.49"/><line class="cls-11" x1="700.33" y1="302.97" x2="700.33" y2="394.52"/><path class="cls-7" d="M693.24,367.53v1c-.14-.1-.28-.18-.41-.26a2.73,2.73,0,0,0-1.94-.45c-1.69.19-3.34,1.34-3.35,3s1.1,3.53,3.9,5.56l-.37.7c-3.21-2.38-4.4-4.45-4.39-6.76,0-1.84,1.58-3.15,3.65-3.45-1.2-.6-4.58-2.25-6-2.94,0,.08-.16.1-.25.07l-.09-1.2C684.8,363.24,691.76,366.69,693.24,367.53Z"/><path class="cls-7" d="M685.94,349.48l1.23.83c0,.14-.12.17-.35.08-.09,1.45-.22,4.83-.22,6.75a4.52,4.52,0,0,0,2.25,4.18,3.5,3.5,0,0,0,4.07-.13c.12.28.38.85.51,1.07a4,4,0,0,1-4.6,0,6.11,6.11,0,0,1-3.09-5.61C685.74,355,685.85,351,685.94,349.48Z"/><path class="cls-7" d="M689.24,344l.08,2.22a27.71,27.71,0,0,1,3.32,3.95l-.5.5a24.32,24.32,0,0,0-2.8-3.52c0,.2,0,.44,0,.61,0,1.23-.67,1.57-2,.78s-2.49-2.11-2.49-3.33,1.24-1.23,2.5-.5a7.28,7.28,0,0,1,1.19.84c0-.56,0-1.25,0-1.95-.36-.2-.77-.42-1.1-.62-1.93-1.11-2.47-1.77-2.47-2.52,0-.5.33-.71,1.06-.83l.54.72c-.51,0-.78.16-.78.41s.52.78,2,1.61l.76.42-.06-2.44c-.49-.25-1-.58-1.56-.87-.72-.42-1.75-1-2.43-1.43v-.86c.7.46,1.64,1,2.41,1.44.51.3,1.08.61,1.56.88,0-.63,0-1.37,0-1.82l1.14.72c0,.16-.11.17-.3.1,0,.2,0,1.21,0,1.43a24.42,24.42,0,0,0,3.76,1.66l.1.92a26,26,0,0,1-3.86-1.74c0,.79,0,1.6,0,2.42a20.35,20.35,0,0,0,3.18,1.33l.1.9A24.18,24.18,0,0,1,689.24,344Zm-1.89,3.79c.89.51,1.23.25,1.23-.66v-.76a7.73,7.73,0,0,0-1.26-.94c-.86-.49-1.73-.59-1.73.19s.78,1.6,1.77,2.17"/><path class="cls-7" d="M690.63,329a7.83,7.83,0,0,1,3.06,5.85c0,2.31-1.54,2.91-4.4,1.73-.11-.33-.23-.69-.35-1,2.49,1.07,3.92.72,3.93-1.17a6.25,6.25,0,0,0-2.47-4.68,6.94,6.94,0,0,1-2.06,3.44,9.28,9.28,0,0,0,.52.93l-.58.31c-.17-.3-.32-.59-.48-.92a2.31,2.31,0,0,1-2.3-.11,3.82,3.82,0,0,1-1.6-3.32c0-1.77.86-2.64,2-2.83-.21-1.12-.39-2.3-.54-3.56l1.08.6c0,.11-.08.2-.24.15.11.95.24,1.9.39,2.8a6.34,6.34,0,0,1,2.95,1,3.18,3.18,0,0,1,.27.17,19.9,19.9,0,0,0,.46-2.57l1.12.92c0,.11-.15.08-.29,0A21.53,21.53,0,0,1,690.63,329Zm-5.08,3.54a1.77,1.77,0,0,0,1.82,0,24,24,0,0,1-1.26-4.33,2,2,0,0,0-1.46,2.19,2.37,2.37,0,0,0,.9,2.12m2.33-.4a6.25,6.25,0,0,0,1.73-3,4.23,4.23,0,0,0-.4-.24,4.69,4.69,0,0,0-2.45-.72,22.39,22.39,0,0,0,1.12,4"/><path class="cls-7" d="M688,319l-.47.38c-.26-.56-.88-1.79-1.35-2.68v5.48l-.76-.43v-5a5.42,5.42,0,0,1-1.6.79,6.28,6.28,0,0,0-.43-1,5.59,5.59,0,0,0,3.48-2.77l-3.13-1.8v-.81l1.69,1V309.7l1,.62c0,.1-.06.12-.21.07v2.17l1.09.63.13,0,.52.65c0,.06-.09.07-.15.05a7,7,0,0,1-1.47,2.07c.12.21.28.47.45.78a6.74,6.74,0,0,0,.87-.91l.62.93a.19.19,0,0,1-.17,0l-.06,0a5.5,5.5,0,0,1-.91.67Z"/><path class="cls-7" d="M693.44,315.55l.42.29c0,.05,0,.19,0,.29-.14,6.84-.27,9-.72,9.38-.26.29-.55.26-1.41-.24l-1.07-.66a4.11,4.11,0,0,0-.25-1c.72.49,1.35.85,1.63,1s.29.11.4,0c.36-.25.52-2.38.65-8.39l-2.43-1.41c-.12,3.47-.32,7.62-3,8.25a6.3,6.3,0,0,0-.59-1c2.56-.47,2.79-4.28,2.85-7.72l-2-1.16v-.83l5.43,3.13Z"/><path class="cls-2" d="M652.71,540.86l23.34,171.77c0,22.44-30,40.63-67,40.63s-67-18.19-67-40.63l23.34-171.77Z"/><ellipse class="cls-5" cx="609.05" cy="540.86" rx="43.66" ry="26.48"/><ellipse class="cls-2" cx="609.05" cy="540.86" rx="39.63" ry="24.03"/><polygon class="cls-1" points="270.23 627.27 394.65 702.23 173.74 833.68 98.09 788.7 270.23 627.27"/><path class="cls-7" d="M206.74,799.69a1.45,1.45,0,1,0-2.89,0v.64L179.2,814.55l-65.28-37.69v-1.23l.36-2.44-2.4,1.12h0a1.44,1.44,0,0,0-.85,1.31V787l68.17,39.36,27.54-15.9V806.3s0-.07,0-.1h0v-4.05a.77.77,0,0,0,0-.15h0Z"/><polygon class="cls-13" points="237.06 785.35 380.46 702.55 380.46 619.76 308.76 578.37 165.36 661.16 165.36 743.95 237.06 785.35"/><polyline class="cls-13" points="237.06 785.35 237.06 702.56 165.36 661.16"/><line class="cls-13" x1="380.46" y1="619.76" x2="237.06" y2="702.56"/><path class="cls-13" d="M353.06,702.86c10.47-6.05,19-1.2,19,10.84s-8.42,26.68-18.9,32.73-19,1.18-19-10.85S342.59,708.9,353.06,702.86Z"/><path class="cls-13" d="M354.67,713.86c5.5-3.17,10-.63,10,5.68s-4.42,14-9.91,17.17-10,.62-10-5.68S349.18,717,354.67,713.86Z"/><path class="cls-13" d="M315.15,724.71c10.47-6.05,19-1.19,19,10.84s-8.42,26.69-18.9,32.73-19,1.19-19-10.84S304.68,730.75,315.15,724.71Z"/><path class="cls-13" d="M316.76,735.71c5.5-3.17,10-.62,10,5.69s-4.42,14-9.91,17.17-10,.62-10-5.69S311.27,738.88,316.76,735.71Z"/><rect class="cls-7" x="112.24" y="710.79" width="5.73" height="11.2" rx="2.86"/><polygon class="cls-14" points="179.77 660.07 306.87 586.68 366.05 620.85 238.95 694.24 179.77 660.07"/><path class="cls-3" d="M178.33,814.88l54.88-31.68v-74l-64-37-49.19,28.39s-5.78,6-5.78,77.31Z"/><path class="cls-14" d="M178.33,814.88s0-72.46,5.32-77l49.56-28.61"/><line class="cls-14" x1="120.05" y1="700.59" x2="183.65" y2="738.19"/><path class="cls-14" d="M226.74,727.9v28.68l-38.1,22s-.91-18.18,5.21-31.79Z"/><path class="cls-7" d="M137,786.79a.17.17,0,0,1-.17-.17v-16a.17.17,0,0,1,.17-.17.18.18,0,0,1,.17.17v16A.18.18,0,0,1,137,786.79Z"/><path class="cls-7" d="M138.62,787.73a.18.18,0,0,1-.17-.18V771.6a.18.18,0,0,1,.17-.18.18.18,0,0,1,.18.18v15.95A.18.18,0,0,1,138.62,787.73Z"/><path class="cls-7" d="M140.3,788.69a.17.17,0,0,1-.17-.17v-16a.18.18,0,0,1,.17-.17.18.18,0,0,1,.18.17v16A.17.17,0,0,1,140.3,788.69Z"/><path class="cls-7" d="M141.84,789.54a.18.18,0,0,1-.17-.18v-16a.18.18,0,0,1,.17-.18.18.18,0,0,1,.18.18v16A.18.18,0,0,1,141.84,789.54Z"/><path class="cls-7" d="M143.46,790.47a.17.17,0,0,1-.17-.17v-16a.17.17,0,1,1,.34,0v16A.17.17,0,0,1,143.46,790.47Z"/><path class="cls-7" d="M145.14,791.44a.17.17,0,0,1-.17-.17v-16a.16.16,0,0,1,.17-.17.17.17,0,0,1,.17.17v16A.18.18,0,0,1,145.14,791.44Z"/><path class="cls-7" d="M146.72,792.36a.17.17,0,0,1-.17-.17v-16a.17.17,0,1,1,.34,0v16A.17.17,0,0,1,146.72,792.36Z"/><path class="cls-7" d="M148.34,793.29a.17.17,0,0,1-.18-.17v-16a.18.18,0,0,1,.18-.17.18.18,0,0,1,.17.17v16A.17.17,0,0,1,148.34,793.29Z"/><path class="cls-7" d="M150,794.26a.17.17,0,0,1-.17-.17v-16A.18.18,0,0,1,150,778a.18.18,0,0,1,.18.17v16A.17.17,0,0,1,150,794.26Z"/><path class="cls-7" d="M151.75,795.28a.17.17,0,0,1-.17-.17v-16a.18.18,0,0,1,.17-.18.18.18,0,0,1,.18.18v16A.17.17,0,0,1,151.75,795.28Z"/><path class="cls-7" d="M153.37,796.22a.17.17,0,0,1-.17-.17v-16a.16.16,0,0,1,.17-.17.17.17,0,0,1,.17.17v16A.18.18,0,0,1,153.37,796.22Z"/><path class="cls-7" d="M155.05,797.19a.18.18,0,0,1-.18-.18v-16a.18.18,0,0,1,.18-.18.18.18,0,0,1,.17.18v16A.18.18,0,0,1,155.05,797.19Z"/><polygon class="cls-14" points="122.31 711.76 119.17 750.41 172.8 781.04 176.03 742.24 122.31 711.76"/><path class="cls-13" d="M214.18,780c10.48-6,19-1.2,19,10.84s-8.43,26.68-18.9,32.73-19,1.18-19-10.84S203.72,786.08,214.18,780Z"/><path class="cls-13" d="M215.8,791c5.49-3.17,10-.62,10,5.69s-4.41,14-9.91,17.17-10,.62-10-5.69S210.31,794.21,215.8,791Z"/><path class="cls-14" d="M120.05,739.18S137.64,754,147.6,755c0,0,14-8.51,26.75,2.64"/><path class="cls-14" d="M222.83,763.41c1.17-.67,2.13-.13,2.13,1.22a4.68,4.68,0,0,1-2.12,3.66l-5.21,3c-1.17.68-2.13.13-2.13-1.21a4.67,4.67,0,0,1,2.11-3.66Z"/><path class="cls-7" d="M220.85,766.41c.28-.16.51,0,.51.29a1.12,1.12,0,0,1-.5.88l-1.26.72c-.28.16-.5,0-.51-.29a1.15,1.15,0,0,1,.51-.88Z"/><path class="cls-15" d="M128.22,777a4.73,4.73,0,0,1,2.14,3.7c0,1.35-1,1.9-2.15,1.22l-9-5.19a4.73,4.73,0,0,1-2.14-3.7c0-1.35,1-1.9,2.15-1.22Z"/><path class="cls-15" d="M172.75,802.57a4.69,4.69,0,0,1,2.13,3.7c0,1.35-1,1.9-2.15,1.22l-9-5.19a4.73,4.73,0,0,1-2.13-3.7c0-1.35,1-1.9,2.15-1.22Z"/><path class="cls-13" d="M188.27,777.54a15.9,15.9,0,0,1-5.32-1,.91.91,0,0,1-.5-1.17.89.89,0,0,1,1.17-.49s5.17,2,8.28-.07c1.66-1.12,2.5-3.28,2.5-6.42a.9.9,0,0,1,1.79,0c0,3.78-1.11,6.44-3.29,7.91A8.13,8.13,0,0,1,188.27,777.54Z"/><rect class="cls-7" x="192.43" y="757.32" width="5.73" height="11.2" rx="2.86"/><line class="cls-14" x1="115.38" y1="721.29" x2="115.38" y2="732.1"/><path class="cls-7" d="M291.06,631v32.9a18.57,18.57,0,0,1-10.58-.28c-14.9-5.4-31.46-4.37-45.09,3.73A93.16,93.16,0,0,0,217,681.58L239,694.24l52.11-30.09h0l24.26-14V631.6Z"/><path class="cls-10" d="M387.86,561.16l15.83-9.11h0c2.32-1.32,3.75-4.15,3.76-8.2,0-8.08-5.66-17.93-12.7-22-3.5-2-6.67-2.23-9-.93l-.07,0-15.56,9"/><path class="cls-7" d="M388.11,561.59l-.5-.87,15.83-9.1c2.26-1.29,3.5-4,3.51-7.77,0-7.91-5.56-17.59-12.45-21.56-3.22-1.87-6.24-2.2-8.49-.94l-15.62,9-.5-.87,15.56-9c2.64-1.48,6-1.15,9.55.9,7.17,4.14,13,14.2,12.95,22.43,0,4.1-1.43,7.17-4,8.64Z"/><path class="cls-10" d="M379.39,530.72c7,4.06,12.72,13.91,12.7,22s-5.75,11.35-12.79,7.28-12.72-13.91-12.7-22c0-3.91,1.36-6.69,3.54-8.06l.26-.16C372.71,528.49,375.89,528.7,379.39,530.72Z"/><path class="cls-7" d="M385,562.26a12.15,12.15,0,0,1-6-1.82c-7.16-4.14-13-14.21-12.95-22.44,0-4,1.35-7,3.77-8.49l.29-.17c2.57-1.44,5.93-1.1,9.48.94h0c7.16,4.14,13,14.2,12.95,22.44,0,4.08-1.43,7.14-4,8.62A7.15,7.15,0,0,1,385,562.26Zm-11.35-32.8a6,6,0,0,0-3,.76,1.38,1.38,0,0,0-.24.14c-2.13,1.33-3.3,4-3.31,7.64,0,7.92,5.56,17.59,12.45,21.57,3.26,1.88,6.29,2.2,8.55.9s3.48-4,3.49-7.76c0-7.91-5.57-17.58-12.45-21.56A11.15,11.15,0,0,0,373.67,529.46Z"/><path class="cls-10" d="M379.37,537a16.05,16.05,0,0,1,7.29,12.63c0,4.65-3.3,6.52-7.34,4.19A16.07,16.07,0,0,1,372,541.13c0-2.24.78-3.84,2-4.63l.15-.09C375.54,535.67,377.36,535.79,379.37,537Z"/><path class="cls-7" d="M382.6,555.27a7.22,7.22,0,0,1-3.53-1.07c-4.17-2.41-7.56-8.27-7.54-13.07,0-2.34.81-4.14,2.26-5l.17-.1c1.55-.87,3.56-.68,5.66.54,4.17,2.41,7.56,8.27,7.54,13.07,0,2.42-.86,4.24-2.4,5.13A4.26,4.26,0,0,1,382.6,555.27Zm-6.51-18.83a3.35,3.35,0,0,0-1.64.41l-.12.07c-1.16.73-1.8,2.23-1.8,4.22a15.51,15.51,0,0,0,7,12.19c1.8,1,3.47,1.23,4.7.52s1.89-2.22,1.89-4.27a15.55,15.55,0,0,0-7-12.2h0A6.22,6.22,0,0,0,376.09,536.44Z"/><path class="cls-10" d="M284.39,604.15c0-6.5,8.7-11.78,19.42-11.78s19.42,5.28,19.42,11.78v18c0,6.51-8.7,11.78-19.42,11.78s-19.42-5.27-19.42-11.78Z"/><path class="cls-7" d="M303.81,634.39c-11,0-19.92-5.51-19.92-12.28v-18c0-6.77,8.94-12.28,19.92-12.28s19.92,5.51,19.92,12.28v18C323.73,628.88,314.79,634.39,303.81,634.39Zm0-41.52c-10.43,0-18.92,5.06-18.92,11.28v18c0,6.22,8.49,11.28,18.92,11.28s18.92-5.06,18.92-11.28v-18C322.73,597.93,314.24,592.87,303.81,592.87Z"/><path class="cls-7" d="M303.81,616.43c-11,0-19.92-5.51-19.92-12.28s8.94-12.28,19.92-12.28,19.92,5.51,19.92,12.28S314.79,616.43,303.81,616.43Zm0-23.56c-10.43,0-18.92,5.06-18.92,11.28s8.49,11.28,18.92,11.28,18.92-5.06,18.92-11.28S314.24,592.87,303.81,592.87Z"/><path class="cls-10" d="M374.06,536.5l-62.22,35.94s-21.09,11.71-20.78,31.71c0,4.27,5.71,7.73,12.75,7.73s12.75-3.46,12.75-7.73c.56-11.15,15.9-19.81,15.9-19.81l52-30"/><path class="cls-7" d="M303.81,612.38c-7.31,0-13.25-3.69-13.25-8.23-.31-20.06,20.82-32,21-32.15l62.21-35.93.5.87-62.22,35.93c-.22.12-20.84,11.8-20.53,31.27,0,4,5.5,7.24,12.25,7.24s12.25-3.24,12.25-7.23c.57-11.32,15.52-19.88,16.16-20.24l52-30,.5.86-52,30c-.15.08-15.11,8.65-15.65,19.4C317.06,608.69,311.12,612.38,303.81,612.38Z"/><path class="cls-10" d="M330.78,555.13c0-3.28,4.39-6,9.82-6s9.81,2.67,9.81,6v9.09c0,3.28-4.39,5.95-9.81,5.95s-9.82-2.67-9.82-5.95Z"/><path class="cls-7" d="M340.6,570.67c-5.69,0-10.32-2.9-10.32-6.45v-9.09c0-3.55,4.63-6.45,10.32-6.45s10.31,2.9,10.31,6.45v9.09C350.91,567.77,346.29,570.67,340.6,570.67Zm0-21c-5.14,0-9.32,2.45-9.32,5.45v9.09c0,3,4.18,5.45,9.32,5.45s9.31-2.45,9.31-5.45v-9.09C349.91,552.13,345.73,549.68,340.6,549.68Z"/><path class="cls-7" d="M340.6,561.59c-5.69,0-10.32-2.9-10.32-6.46s4.63-6.45,10.32-6.45,10.31,2.9,10.31,6.45S346.29,561.59,340.6,561.59Zm0-11.91c-5.14,0-9.32,2.45-9.32,5.45s4.18,5.46,9.32,5.46,9.31-2.45,9.31-5.46S345.73,549.68,340.6,549.68Z"/><path class="cls-10" d="M343.52,539.46V555c0,1-1.31,1.77-2.93,1.77s-2.93-.79-2.93-1.77h0V539.46"/><path class="cls-7" d="M340.59,557.3c-1.92,0-3.43-1-3.43-2.27V539.46h1v15.63c.07.59,1,1.21,2.42,1.21S343,555.63,343,555V539.46h1V555C344,556.3,342.52,557.3,340.59,557.3Z"/><ellipse class="cls-7" cx="340.6" cy="532.03" rx="12.76" ry="7.74"/><g class="cls-16"><path class="cls-7" d="M624.68,62.28c14.11,8.14,25.51,27.88,25.46,44.09s-11.51,22.74-25.62,14.6l-43.47-25.1c-9.3-5.37-16.82-18.39-16.79-29.08,0-9.94,6.58-14.36,15-10.61,3.9-5,10.87-5.8,18.8-1.22a37.13,37.13,0,0,1,7.69,6C610.42,57.76,617.18,57.94,624.68,62.28Z"/></g><path class="cls-2" d="M617.79,66.86C631.9,75,643.29,94.75,643.25,111s-11.52,22.75-25.63,14.6l-43.46-25.09c-9.31-5.37-16.82-18.39-16.79-29.08,0-9.95,6.58-14.37,15-10.62,3.91-5,10.87-5.79,18.8-1.22a37.6,37.6,0,0,1,7.7,6C603.52,62.35,610.29,62.53,617.79,66.86Z"/><g class="cls-16"><path class="cls-7" d="M394.47,2.87c11.54-6.67,20.92-1.32,21,11.94a33.24,33.24,0,0,1-.4,5c7.69-3.57,13.71.42,13.74,9.49,0,9.65-6.76,21.41-15.17,26.26l-61,35.21c-8.4,4.85-15.23,1-15.26-8.7s6.76-21.42,15.17-26.27a14.17,14.17,0,0,1,6.27-2.05c1.18-9,7.4-18.87,14.94-23.23.39-.22.77-.41,1.15-.59C377.8,19.05,385.45,8.07,394.47,2.87Z"/></g><path class="cls-2" d="M400.43,8.14c11.53-6.66,20.92-1.31,20.95,12a30.71,30.71,0,0,1-.4,5c7.69-3.56,13.72.42,13.75,9.49,0,9.66-6.77,21.42-15.17,26.27l-61,35.21c-8.4,4.85-15.23,1-15.26-8.7s6.76-21.42,15.16-26.27A14.37,14.37,0,0,1,364.76,59c1.18-9,7.4-18.87,14.94-23.22.39-.22.77-.41,1.15-.6C383.75,24.33,391.41,13.35,400.43,8.14Z"/><path class="cls-1" d="M90.09,282.46c11.3-6.52,20.5-1.28,20.53,11.7a22.24,22.24,0,0,0,2-1.16c6.2-3.58,11.25-.7,11.27,6.42s-5,15.81-11.2,19.39L11.26,377.37C5.06,381,0,378.08,0,371s5-15.81,11.19-19.39a11.63,11.63,0,0,1,3.58-1.38c3.66-8.42,16.71-20.61,32.26-29.59,9.09-5.25,17.33-8.41,23.35-9.3C72.69,299.91,80.63,287.93,90.09,282.46Z"/><path class="cls-2" d="M96.56,288.25c11.3-6.52,20.49-1.29,20.53,11.69a22.07,22.07,0,0,0,2-1.15c6.2-3.58,11.25-.7,11.27,6.42s-5,15.81-11.2,19.39L17.73,383.16c-6.2,3.58-11.24.71-11.26-6.42s5-15.81,11.19-19.39A11.68,11.68,0,0,1,21.23,356C24.9,347.55,38,335.35,53.5,326.38c9.09-5.25,17.33-8.41,23.35-9.3C79.16,305.7,87.1,293.71,96.56,288.25Z"/><g class="cls-16"><path class="cls-7" d="M802.54,268.68c11.58,6.42,21.34,21.33,23.4,34.94a19.26,19.26,0,0,1,2.55,1.19c9.15,5.07,16.68,17.61,16.83,28s-7.13,14.73-16.28,9.66l-68.46-38a15.21,15.21,0,0,1-7.11-11.84c0-2.59,1-4.28,2.68-4.8a28.56,28.56,0,0,1-1.79-9.18c-.16-10.4,7.13-14.72,16.27-9.65a31,31,0,0,1,9.26,8.29C781.86,266.34,791.19,262.39,802.54,268.68Z"/></g><path class="cls-2" d="M795.9,273.77c11.58,6.42,21.34,21.32,23.4,34.94a19.26,19.26,0,0,1,2.55,1.19c9.15,5.07,16.68,17.6,16.83,28s-7.13,14.73-16.27,9.66l-68.47-37.95a15.23,15.23,0,0,1-7.11-11.84c0-2.59,1-4.28,2.68-4.8a28.61,28.61,0,0,1-1.79-9.18c-.15-10.4,7.13-14.72,16.27-9.65a30.85,30.85,0,0,1,9.26,8.29C775.22,271.42,784.55,267.48,795.9,273.77Z"/><path class="cls-2" d="M176.25,215.9l4.38,19c0,4.18,5.58,7.57,12.47,7.57s12.48-3.39,12.48-7.57l3.67-19Z"/><ellipse class="cls-2" cx="192.75" cy="214.83" rx="16.6" ry="10.06"/><path class="cls-7" d="M232.73,135.49a40,40,0,1,0-73.55,21.7h0l17.9,36.16h31.37l17.9-36.16h0A39.88,39.88,0,0,0,232.73,135.49Z"/><path class="cls-7" d="M232.73,135.49a40,40,0,1,0-73.55,21.7h0l17.9,36.16h31.37l17.9-36.16h0A39.88,39.88,0,0,0,232.73,135.49Z"/><path class="cls-17" d="M170.2,97.46s-14.88,54,16.68,101.69"/><path class="cls-17" d="M214.43,97.46s14.88,54-16.68,101.69"/><line class="cls-17" x1="192.32" y1="95.5" x2="192.32" y2="202.72"/><line class="cls-2" x1="177.35" y1="191.92" x2="176.16" y2="214.83"/><line class="cls-2" x1="208.24" y1="191.92" x2="209.35" y2="214.83"/><circle class="cls-7" cx="154.58" cy="378.35" r="6.55"/><circle class="cls-7" cx="159.35" cy="374.71" r="4.96"/><circle class="cls-7" cx="156.03" cy="369.75" r="4.96"/><circle class="cls-7" cx="148.03" cy="352.65" r="4.96"/><circle class="cls-7" cx="164.31" cy="340.43" r="7.06"/><circle class="cls-7" cx="257.37" cy="246.95" r="8.72"/><circle class="cls-7" cx="266.59" cy="243.4" r="8.72"/><circle class="cls-7" cx="259.44" cy="236.28" r="7.15"/><circle class="cls-7" cx="268.19" cy="214.17" r="7.15"/><circle class="cls-7" cx="325.68" cy="208.33" r="11.47"/><circle class="cls-7" cx="329.43" cy="199.15" r="7.73"/><circle class="cls-7" cx="340.87" cy="132.65" r="5.89"/><circle class="cls-7" cx="318.61" cy="170.04" r="4.4"/><circle class="cls-7" cx="252.29" cy="180.96" r="3.49"/><circle class="cls-7" cx="587.46" cy="540.86" r="18.03"/><circle class="cls-7" cx="597.76" cy="522.82" r="18.03"/><circle class="cls-7" cx="621.25" cy="517.97" r="18.03"/><circle class="cls-7" cx="630.65" cy="539.16" r="18.03"/><ellipse class="cls-7" cx="609.29" cy="546.59" rx="36.63" ry="18.59"/></g></g></svg>