<svg xmlns="http://www.w3.org/2000/svg" width="115" height="112" viewBox="0 0 115 112">
  <path id="Subtraction_1" data-name="Subtraction 1" d="M-2464.365,112h-74.271a20.3,20.3,0,0,1-7.933-1.6,20.268,20.268,0,0,1-6.472-4.356,20.243,20.243,0,0,1-4.361-6.465,20.233,20.233,0,0,1-1.6-7.924V20.342a20.233,20.233,0,0,1,1.6-7.924,20.243,20.243,0,0,1,4.361-6.465,20.268,20.268,0,0,1,6.472-4.356,20.3,20.3,0,0,1,7.933-1.6h74.271a20.3,20.3,0,0,1,7.933,1.6,20.269,20.269,0,0,1,6.473,4.356,20.241,20.241,0,0,1,4.361,6.465,20.228,20.228,0,0,1,1.6,7.924V91.658a20.228,20.228,0,0,1-1.6,7.924,20.241,20.241,0,0,1-4.361,6.465,20.269,20.269,0,0,1-6.473,4.356A20.3,20.3,0,0,1-2464.365,112Zm-9.823-71.938a24.375,24.375,0,0,0-12.123,2.776,19.849,19.849,0,0,0-7.619,7.419,19.637,19.637,0,0,0-2.635,10.1,20.807,20.807,0,0,0,2.635,10.913,16.648,16.648,0,0,0,7.236,6.51,23.914,23.914,0,0,0,9.97,2.156l.332,0a42.092,42.092,0,0,0,7.379-.67,36.608,36.608,0,0,0,7.811-2.3.777.777,0,0,0,.479-.766c-.007-.124-.015-.252-.022-.383v-.01c-.042-.72-.088-1.536-.169-2.383l-.013-.281v-.009c-.042-.926-.083-1.8-.083-2.581V24.889a.444.444,0,0,0-.4-.343.383.383,0,0,0-.074.007h-9.727c-.323,0-.48.172-.48.526V40.2c-.266-.022-.507-.034-.74-.045-.264-.013-.513-.025-.745-.051A8.546,8.546,0,0,0-2474.187,40.062Zm-67.179-11.343a.562.562,0,0,0-.479.191c-.092.091-.054.279.1.479l14.519,24.554-14.9,24.41a.662.662,0,0,0-.1.526c0,.135.047.162.117.162a.738.738,0,0,0,.088-.008.994.994,0,0,1,.13-.011h10.542c.5,0,.907-.039,1.1-.526.737-1.312,1.486-2.689,2.21-4.021l0,0,.018-.034c.353-.648.717-1.319,1.076-1.973,1.074-2.047,2.231-4.207,3.251-6.113l.007-.013.02-.037,0,0c1.076-2.01,2.188-4.088,3.188-6.132h.1c1.134,2.076,2.286,4.139,3.4,6.134l0,.005.046.082c1,1.79,2.168,3.906,3.258,6.031.5,1.007,1.027,2.014,1.532,2.989s1.03,1.985,1.535,2.994c.343.489.891.526,1.629.526H-2498a.772.772,0,0,1,.13-.011,1.413,1.413,0,0,1,.143.009h.014c.038,0,.071.007.1.007a.122.122,0,0,0,.139-.1.818.818,0,0,0-.1-.574L-2512.9,53.128l14.375-23.692a.675.675,0,0,0,.126-.185c.033-.073.04-.128.018-.149a.434.434,0,0,0-.435-.344.474.474,0,0,0-.093.009h-10.11a.94.94,0,0,0-.183-.019.964.964,0,0,0-.44.114.808.808,0,0,0-.287.479c-.431.8-.87,1.636-1.295,2.443l-.006.012c-.619,1.175-1.26,2.391-1.909,3.576l-.04.073c-1.07,1.951-2.175,3.969-3.219,5.958-1.278,2.437-2.239,4.342-3.114,6.174h-.1c-1.057-2.162-2.107-4.15-3.21-6.079-.978-1.641-1.872-3.247-2.819-4.948l-.63-1.131c-1.334-2.491-2.28-4.4-3.067-6.174a1.343,1.343,0,0,0-.479-.431,2.761,2.761,0,0,0-.671-.1Zm65.933,41.976a12.565,12.565,0,0,1-3.977-.622,8.227,8.227,0,0,1-3.259-1.915,9.352,9.352,0,0,1-2.156-3.4,13.254,13.254,0,0,1-.814-4.93,10.577,10.577,0,0,1,1.581-6.079,10.682,10.682,0,0,1,4.073-3.542,11.727,11.727,0,0,1,5.415-1.245c.527,0,1.063.049,1.581.1a12.349,12.349,0,0,1,1.294.239v21.06a4.317,4.317,0,0,1-1.412.252c-.1,0-.208,0-.313-.012C-2474.077,70.649-2474.725,70.694-2475.433,70.694Z" transform="translate(2559)" fill="#f7f8f3"/>
</svg>
