<svg xmlns="http://www.w3.org/2000/svg" width="111.849" height="111.823" viewBox="0 0 111.849 111.823">
  <g id="adobe-photoshop-logo" transform="translate(0 -0.002)">
    <g id="Group_250" data-name="Group 250" transform="translate(0 0.002)">
      <path id="Path_230" data-name="Path 230" d="M10.777,4.982a23.112,23.112,0,0,0-5.75.557v18.19a21.649,21.649,0,0,0,4.655.359c7.408,0,11.979-3.746,11.979-10.059C21.655,8.369,17.724,4.982,10.777,4.982Z" transform="translate(27.159 26.903)" fill="#f7f8f3"/>
      <path id="Path_231" data-name="Path 231" d="M105,0H6.851A6.842,6.842,0,0,0,0,6.834v98.147a6.849,6.849,0,0,0,6.851,6.845H105a6.848,6.848,0,0,0,6.844-6.845V6.84A6.842,6.842,0,0,0,105,0Zm-48.059,55.2C52.2,59.688,45.152,61.7,36.937,61.7a34.575,34.575,0,0,1-4.757-.275V83.461H18.369v-60.8a115.069,115.069,0,0,1,18.837-1.274c8.586,0,14.72,1.639,18.824,4.936a17.98,17.98,0,0,1,6.595,14.265C62.625,46.62,60.608,51.723,56.946,55.206ZM77.761,84.37c-5.865,0-11.07-1.268-14.457-3.105L65.769,71.3a27.352,27.352,0,0,0,11.992,3.374c4.194,0,5.935-1.46,5.935-3.752s-1.37-3.374-6.576-5.116C67.888,62.7,64.315,57.671,64.4,52.37c0-8.311,7.133-14.637,18.2-14.637a30.082,30.082,0,0,1,12.613,2.561L92.75,49.9a21.869,21.869,0,0,0-9.694-2.555c-3.374,0-5.289,1.37-5.289,3.656,0,2.1,1.722,3.195,7.209,5.122,8.5,2.92,12.075,7.222,12.159,13.791C97.135,78.243,90.541,84.37,77.761,84.37Z" transform="translate(0 -0.002)" fill="#f7f8f3"/>
    </g>
  </g>
</svg>
