<svg id="adobe-illustrator" xmlns="http://www.w3.org/2000/svg" width="111.823" height="111.823" viewBox="0 0 111.823 111.823">
  <g id="Group_251" data-name="Group 251">
    <path id="Path_232" data-name="Path 232" d="M12.081,5.772h-.166c-.842,3.387-1.684,7.689-2.618,10.983l-3.38,12.07H18.5l-3.546-12.07C13.944,13.374,12.93,9.159,12.081,5.772Z" transform="translate(33.302 32.486)" fill="#f7f8f3"/>
    <path id="Path_233" data-name="Path 233" d="M104.97,0H6.847A6.843,6.843,0,0,0,0,6.847v98.13a6.847,6.847,0,0,0,6.847,6.847h98.13a6.851,6.851,0,0,0,6.847-6.847V6.847A6.853,6.853,0,0,0,104.97,0ZM58.049,85.536l-4.394-14.6H37.369l-4.056,14.6H19.977L37.369,28.647H54.245L71.9,85.536Zm33.373,0H78.583V44.263H91.422ZM84.926,39.2c-4.05,0-6.754-2.877-6.675-6.423-.08-3.718,2.625-6.489,6.767-6.489a6.42,6.42,0,0,1,6.827,6.489C91.846,36.322,89.148,39.2,84.926,39.2Z" fill="#f7f8f3"/>
  </g>
</svg>
