<svg xmlns="http://www.w3.org/2000/svg" width="114.686" height="111.823" viewBox="0 0 114.686 111.823">
  <path id="Subtraction_2" data-name="Subtraction 2" d="M-2464.621,111.823h-74.072a20.21,20.21,0,0,1-7.909-1.594,20.21,20.21,0,0,1-6.454-4.349,20.219,20.219,0,0,1-4.349-6.454A20.216,20.216,0,0,1-2559,91.516V20.307a20.215,20.215,0,0,1,1.594-7.909,20.219,20.219,0,0,1,4.349-6.454,20.211,20.211,0,0,1,6.454-4.349A20.21,20.21,0,0,1-2538.693,0h74.072a20.212,20.212,0,0,1,7.909,1.594,20.216,20.216,0,0,1,6.455,4.349,20.212,20.212,0,0,1,4.349,6.454,20.211,20.211,0,0,1,1.594,7.909V91.516a20.211,20.211,0,0,1-1.594,7.909,20.213,20.213,0,0,1-4.349,6.454,20.216,20.216,0,0,1-6.455,4.349A20.212,20.212,0,0,1-2464.621,111.823Zm-26.619-71.06c-.039,0-.076.021-.129.074a.461.461,0,0,0-.313.537c.137,1.1.225,2.137.269,3.176.023.612.034,1.245.045,1.856v.006c.011.606.022,1.232.044,1.851.045,1.252.045,2.435.045,3.578V78.5a.631.631,0,0,0,.66.587.869.869,0,0,0,.1-.006h9.3c.451,0,.626-.188.626-.671V54.033A7.933,7.933,0,0,1-2478,52.244a20.315,20.315,0,0,1,7.933-1.642c.367,0,.739.011,1.1.032.554,0,.76-.146.76-.537V40.57a.608.608,0,0,0-.591-.543.575.575,0,0,0-.08.006c-.164-.006-.329-.009-.492-.009a13.758,13.758,0,0,0-6.62,1.709,18.826,18.826,0,0,0-5.1,4.115c0-.573-.044-1.154-.09-1.7-.044-.49-.135-.988-.222-1.469v-.007a4.1,4.1,0,0,0-.4-1.118,1.012,1.012,0,0,0-.984-.76h-8.364A.217.217,0,0,0-2491.24,40.764ZM-2529.3,28.671h0a.622.622,0,0,0-.422.238.576.576,0,0,0-.115.433V78.187c0,.588.235.85.76.85h30.282a1.2,1.2,0,0,0,.537-.134.9.9,0,0,0,.269-.581L-2496.6,70a.61.61,0,0,0-.059-.514.589.589,0,0,0-.478-.157h-22.1V29.074a.459.459,0,0,0-.465-.409.37.37,0,0,0-.072.007h-9.527Z" transform="translate(2559)" fill="#f7f8f3"/>
</svg>
