<svg xmlns="http://www.w3.org/2000/svg" width="163.128" height="111.823" viewBox="0 0 163.128 111.823">
  <g id="ArduinoLogo__" data-name="ArduinoLogo_®" transform="translate(-25.84 -27.717)">
    <g id="Group_247" data-name="Group 247" transform="translate(25.84 27.717)">
      <path id="Path_217" data-name="Path 217" d="M188.968,66.47c0-21.367-18.027-38.753-40.187-38.753a43.249,43.249,0,0,0-6.182.437C125.385,30.609,113.862,43,107.41,52.494c-6.467-9.5-17.988-21.885-35.2-24.34a43.1,43.1,0,0,0-6.178-.437C43.862,27.717,25.84,45.1,25.84,66.47s18.022,38.753,40.171,38.753a44.448,44.448,0,0,0,6.2-.426c17.216-2.47,28.737-14.86,35.2-24.368,6.452,9.508,17.975,21.9,35.189,24.368a44.56,44.56,0,0,0,6.2.426c22.147,0,40.169-17.379,40.169-38.753M70.261,91.189a30.218,30.218,0,0,1-4.25.307c-14.573,0-26.43-11.233-26.43-25.025S51.438,41.438,66.029,41.438a31.655,31.655,0,0,1,4.237.309C86.482,44.062,96.414,60.061,99.78,66.464c-3.368,6.417-13.3,22.411-29.519,24.725M115.036,66.47c3.366-6.409,13.287-22.408,29.508-24.723a31.572,31.572,0,0,1,4.237-.309c14.582,0,26.444,11.241,26.444,25.033S163.367,91.5,148.8,91.5a30.458,30.458,0,0,1-4.254-.307c-16.222-2.314-26.152-18.317-29.508-24.719" transform="translate(-25.84 -27.717)" fill="#f7f8f3"/>
      <rect id="Rectangle_76" data-name="Rectangle 76" width="24.129" height="7.777" transform="translate(29.113 34.968)" fill="#f7f8f3"/>
      <path id="Path_218" data-name="Path 218" d="M235.639,91.025H243.8V83.248h-8.157V75.064h-7.8v8.184h-8.171v7.777h8.171v8.183h7.8Z" transform="translate(-110.02 -48.279)" fill="#f7f8f3"/>
      <path id="Path_219" data-name="Path 219" d="M40.608,185.1l-7.042,22.447h5.685l1.146-4.6h6.456l1.245,4.6H54L46.853,185.1Zm.858,13.54,2.036-8.22,2.216,8.22Z" transform="translate(-29.195 -96.066)" fill="#f7f8f3"/>
      <path id="Path_220" data-name="Path 220" d="M93.576,192.593c0-4.315-2.345-7.5-8.555-7.5H75.977v22.447h5.555v-7.115h2.8l3.37,7.115h6.562l-4.381-8.217c2.449-1.314,3.692-3.654,3.692-6.733m-9.106,3.381H81.532v-6.338h2.83c2.59,0,3.3,1,3.3,2.987,0,2.495-1.269,3.351-3.195,3.351" transform="translate(-47.614 -96.066)" fill="#f7f8f3"/>
      <path id="Path_221" data-name="Path 221" d="M122.384,185.1h-7.347v22.446h7.382c9.524,0,11.143-6.118,11.143-11.429,0-7.049-2.791-11.017-11.177-11.017m.311,17.848H120.59V189.637h1.621c4.967,0,5.417,2.337,5.417,6.725,0,3.791-.342,6.584-4.932,6.584" transform="translate(-64.578 -96.066)" fill="#f7f8f3"/>
      <path id="Path_222" data-name="Path 222" d="M167.311,198.8c0,3.422-.936,4.553-3.46,4.553-2.1,0-3.42-.86-3.42-4.584V185.1h-5.552v14.716c0,6.795,4.9,8.075,8.737,8.075,3.972,0,9.039-1.415,9.039-8.047V185.1h-5.343V198.8Z" transform="translate(-81.88 -96.066)" fill="#f7f8f3"/>
      <path id="Path_223" data-name="Path 223" d="M195.081,189.689h5.8v13.256h-5.8v4.6h17.2v-4.6h-5.84V189.689h5.84V185.1h-17.2Z" transform="translate(-99.34 -96.066)" fill="#f7f8f3"/>
      <path id="Path_224" data-name="Path 224" d="M246.923,198.57,239.648,185.1H233.6v22.446h5.255l-.037-14.367,7.667,14.367H252.1V185.1h-5.179Z" transform="translate(-116.066 -96.066)" fill="#f7f8f3"/>
      <path id="Path_225" data-name="Path 225" d="M282.247,184.579c-6.807,0-9.4,5-9.4,11.761,0,7.427,2.97,11.324,9.422,11.324,7.22,0,9.594-5.072,9.594-11.566,0-8.566-3.235-11.518-9.62-11.518m.026,18.554c-3.208,0-3.523-2.269-3.523-6.793,0-5.48.525-7.25,3.5-7.25,3.27,0,3.722,1.526,3.722,7.007,0,5.178-.452,7.035-3.7,7.035" transform="translate(-133.115 -95.841)" fill="#f7f8f3"/>
      <g id="Group_246" data-name="Group 246" transform="translate(155.465 3.007)">
        <path id="Path_226" data-name="Path 226" d="M300.654,36.65a3.538,3.538,0,1,1,7.075,0,3.526,3.526,0,0,1-3.559,3.6A3.573,3.573,0,0,1,300.654,36.65Zm6.457,0a2.985,2.985,0,0,0-2.942-3.059,2.865,2.865,0,0,0-2.9,3.059,2.915,2.915,0,0,0,2.9,3.059A2.858,2.858,0,0,0,307.111,36.65Zm-4.618-2.295h1.75c1.368,0,1.853.588,1.853,1.5a1.348,1.348,0,0,1-.853,1.324L306.1,38.9h-1.221l-.632-1.516H303.6V38.9h-1.1V34.356Zm1.663,2.25c.485,0,.794-.177.794-.75,0-.5-.191-.706-.809-.706H303.6v1.456Z" transform="translate(-300.654 -33.032)" fill="#f7f8f3"/>
      </g>
    </g>
  </g>
</svg>
