<svg xmlns="http://www.w3.org/2000/svg" width="112.823" height="112.823" viewBox="0 0 112.823 112.823">
  <path id="Subtraction_4" data-name="Subtraction 4" d="M-2465.814,111.823h-74.549a18.5,18.5,0,0,1-13.163-5.475A18.5,18.5,0,0,1-2559,93.186V18.637a18.5,18.5,0,0,1,5.474-13.162A18.5,18.5,0,0,1-2540.363,0h74.549a18.5,18.5,0,0,1,13.162,5.475,18.5,18.5,0,0,1,5.475,13.162V93.186a18.5,18.5,0,0,1-5.475,13.162A18.5,18.5,0,0,1-2465.814,111.823Zm-62.8-87.521V89.533h29.966a36.956,36.956,0,0,0,10.872-1.426,22.046,22.046,0,0,0,7.491-3.837,14.555,14.555,0,0,0,4.294-5.756,18.652,18.652,0,0,0,1.371-7.162,19.038,19.038,0,0,0-3.107-11.11,14.355,14.355,0,0,0-9.136-5.7v-.183a15.579,15.579,0,0,0,6.907-5.445,14.6,14.6,0,0,0,2.412-8.441c0-5.385-1.783-9.474-5.3-12.151s-8.235-4.02-14.069-4.02ZM-2497,80.213h-20.192V59.822H-2497c3.506,0,6.148.849,8.076,2.595,1.943,1.76,2.887,4.2,2.887,7.455,0,3.28-.971,5.85-2.887,7.638C-2490.812,79.3-2493.529,80.213-2497,80.213Zm-1.553-28.595h-18.638V33.6h18.638c3.084,0,5.482.676,7.126,2.01s2.466,3.663,2.466,6.944a10.225,10.225,0,0,1-.685,3.869,7.438,7.438,0,0,1-2.056,2.855A10.179,10.179,0,0,1-2498.557,51.619Z" transform="translate(2559.5 0.5)" fill="#f7f8f3" stroke="rgba(0,0,0,0)" stroke-miterlimit="10" stroke-width="1"/>
</svg>
