<svg xmlns="http://www.w3.org/2000/svg" width="111.823" height="111.823" viewBox="0 0 111.823 111.823">
  <path id="c-logo" d="M108.245,0H3.578A3.578,3.578,0,0,0,0,3.578V108.245a3.578,3.578,0,0,0,3.578,3.578H108.245a3.578,3.578,0,0,0,3.578-3.578V3.578A3.578,3.578,0,0,0,108.245,0ZM43.659,69.153a18.532,18.532,0,0,1-12.2,4.6,17.849,17.849,0,1,1,0-35.689,18.442,18.442,0,0,1,12.16,4.564,3.336,3.336,0,1,1-4.4,5.018,11.775,11.775,0,0,0-7.764-2.91,11.18,11.18,0,1,0,0,22.346,11.863,11.863,0,0,0,7.807-2.952,3.336,3.336,0,0,1,4.393,5.021Zm22.869-9.906H59.806V65.97a3.336,3.336,0,0,1-6.672,0V59.247H46.412a3.336,3.336,0,1,1,0-6.671h6.722V45.854a3.336,3.336,0,0,1,6.672,0v6.722h6.722a3.336,3.336,0,1,1,0,6.671Zm28.738,0H88.544V65.97a3.336,3.336,0,0,1-6.672,0V59.247H75.151a3.336,3.336,0,1,1,0-6.671h6.722V45.854a3.336,3.336,0,0,1,6.672,0v6.722h6.722a3.336,3.336,0,1,1,0,6.671Z" fill="#f7f8f3"/>
</svg>
