<svg xmlns="http://www.w3.org/2000/svg" width="79.226" height="111.823" viewBox="0 0 79.226 111.823">
  <g id="Group_261" data-name="Group 261" transform="translate(-630.681 -4948.588)">
    <path id="Subtraction_7" data-name="Subtraction 7" d="M-2519.441,89.846h0l-32.351-8.982L-2559,0h79.226l-7.207,80.864-32.46,8.982Zm-21.7-38.357h0l1.392,15.561,20.311,5.652.055-.028v-.007l20.284-5.617.164-1.665,2.32-26.127.246-2.648,1.8-20.093h-49.687l.9,9.938h37.921l-.9,10.156h-36.146l.9,9.91h34.372l-1.146,12.859-11.03,3v-.02l-.055.027-11.03-3-.71-7.89h-9.964Z" transform="translate(3189.681 4970.565)" fill="#f7f8f3"/>
    <path id="path2999" d="M160,0h12.012V5.023h-6.989v5.023h6.989V15.07H160Z" transform="translate(489.327 4948.588)" fill="#f7f8f3"/>
    <path id="path3001" d="M226,0h12.012V4.368h-6.989v.874h6.989V15.288H226V10.7h6.989V9.828H226V0Z" transform="translate(437.742 4948.588)" fill="#f7f8f3"/>
    <path id="path3003" d="M292,0h12.012V4.368h-6.989v.874h6.989V15.288H292V10.7h6.989V9.828H292Z" transform="translate(386.157 4948.588)" fill="#f7f8f3"/>
  </g>
</svg>
