<svg id="layer1" xmlns="http://www.w3.org/2000/svg" width="145.043" height="50.537" viewBox="0 0 145.043 50.537">
  <path id="path2838" d="M-107.124,382.451c-.025,4.794,3.49,7.651,9.1,6.352V376.1c-5.68-1.73-9.075,1.77-9.1,6.352m9.271-24.722h7.726V394.3c-7.405,1.211-14.5,1.979-19.572-.859-6.533-3.653-7.058-15.26-1.889-20.43,2.621-2.621,7.9-4.466,13.563-3.262v-11.5c-.015-.244-.029-.487.172-.515" transform="translate(115.079 -357.729)" fill="#f7f8f3" fill-rule="evenodd"/>
  <path id="path2840" d="M-56.465,365.8h-7.726v-8.069h7.726Z" transform="translate(93.949 -357.729)" fill="#f7f8f3" fill-rule="evenodd"/>
  <path id="path2844" d="M99.56,397.362c8.422,3.273,9.354-15.075.859-13.391-5.276,1.046-5.106,11.74-.859,13.391m.343-19.743c6.432-.688,11.284,2.15,13.22,6.524,3.3,7.462-.182,16.024-5.494,18.542a15.73,15.73,0,0,1-8.241,1.2c-8.051-.7-13.128-8.906-10.3-18.027a12.392,12.392,0,0,1,1.2-2.747c1.75-2.975,4.7-4.969,9.614-5.494" transform="translate(30.632 -365.945)" fill="#f7f8f3" fill-rule="evenodd"/>
  <path id="path2848" d="M-38.078,394.426c-2.137,3.591,3.232,4.452,6.7,3.434v-5.322c-2.661.371-5.69.2-6.7,1.888m13.563,8.412c-6.382.367-16.08,2.541-19.572-1.717-2.051-2.5-1.831-7.273,0-9.614,2.366-3.025,7.53-3.684,12.189-4.12a4.414,4.414,0,0,0-.343-3.434c-4.262-1.086-8.5.6-11.5,1.889v-6.009c4.539-2.085,15.052-4.281,18.2.515,1.652,2.519,1.03,6.912,1.03,10.816v11.675Z" transform="translate(86.206 -365.927)" fill="#f7f8f3" fill-rule="evenodd"/>
  <path id="path2852" d="M20.345,403.246H12.62v-9.958c0-3.279.53-7.436-1.2-8.756-1.357-1.034-4.575-.515-6.524,0v18.713H-2.832V379.383c7.9-2.051,22.153-4.251,23.177,5.665.5,4.889-.374,12.224,0,18.2" transform="translate(68.471 -365.991)" fill="#f7f8f3" fill-rule="evenodd"/>
  <path id="path2856" d="M50.079,395.04c1.3,2.1,4.82,2.892,7.725,1.545q-.239-6.027-.172-12.361c-6.677-1.764-10.656,5.8-7.554,10.816m19.4-16.309A50.443,50.443,0,0,1,66.9,384.4c-.8.178-1.486-.317-1.889,0-.176,8.369,1.782,19.714-1.545,25.752-2,3.636-5.692,5.968-11.331,6.352a23.07,23.07,0,0,1-10.3-1.545v-7.211c3.524,2.058,12.429,3.735,14.936-.515.738-1.251.691-2.543,1.03-4.464-1.614.085-3.181.832-5.15.859-8.1.107-13.106-6.339-11.159-15.28a12.17,12.17,0,0,1,5.494-7.9c5.638-3.436,14.305-3.175,22.49-1.717" transform="translate(50.24 -366.026)" fill="#f7f8f3" fill-rule="evenodd"/>
  <path id="path2860" d="M-61.951,378.514c-.009,5.689-.007,9.777-.008,16.688-.328,6.792-.252,12.2-2.739,15.451a14.444,14.444,0,0,1-2.4,2.232c-.732.551-2.127,1.668-2.919,1.717s-2.849-1.108-3.777-1.545A27.631,27.631,0,0,0-77.4,411.34c2.939-1.821,5.728-3.186,6.867-6.867.99-3.2.858-7.84.858-12.361,0-4.464.02-9.654.02-13.6l7.706,0Z" transform="translate(99.435 -366.359)" fill="#f7f8f3" fill-rule="evenodd"/>
</svg>
