<svg xmlns="http://www.w3.org/2000/svg" width="113.343" height="113.34" viewBox="0 0 113.343 113.34">
  <g id="g10" transform="translate(0 114.857)">
    <g id="g12" transform="translate(0 -114.857)">
      <path id="path14" d="M111.2-63.235,61.718-112.72a7.3,7.3,0,0,0-10.323,0L41.12-102.443,54.155-89.408a8.666,8.666,0,0,1,8.917,2.078,8.672,8.672,0,0,1,2.06,8.974L77.7-65.794a8.67,8.67,0,0,1,8.974,2.061,8.684,8.684,0,0,1,0,12.282,8.686,8.686,0,0,1-12.287,0A8.687,8.687,0,0,1,72.494-60.9L60.776-72.614V-41.78a8.746,8.746,0,0,1,2.3,1.642,8.688,8.688,0,0,1,0,12.285,8.686,8.686,0,0,1-12.282,0,8.688,8.688,0,0,1,0-12.285,8.673,8.673,0,0,1,2.845-1.9V-73.152a8.609,8.609,0,0,1-2.845-1.9,8.684,8.684,0,0,1-1.87-9.495L36.07-97.394,2.137-63.465a7.3,7.3,0,0,0,0,10.326L51.626-3.655a7.3,7.3,0,0,0,10.323,0L111.2-52.91a7.3,7.3,0,0,0,0-10.326" transform="translate(0 114.857)" fill="#f7f8f3"/>
    </g>
  </g>
</svg>
