<svg xmlns="http://www.w3.org/2000/svg" width="79.237" height="111.823" viewBox="0 0 79.237 111.823">
  <g id="Group_260" data-name="Group 260" transform="translate(-366 -4948.588)">
    <path id="Subtraction_6" data-name="Subtraction 6" d="M-2519.425,89.852h0l-32.367-8.977L-2559,0h79.237l-7.23,80.853-32.432,9Zm-21.71-38.374h0l1.4,15.573,20.312,5.657.043-.022v-.013l20.29-5.622.153-1.66,2.337-26.121.24-2.665h-36.147l-.895-10.156h37.937l.2-2.227.459-5.024.239-2.664h-49.686l.24,2.664,2.446,27.322h34.376l-1.157,12.865-11.073,2.992-11.052-2.992-.7-7.906h-9.959Z" transform="translate(2925 4970.56)" fill="#f7f8f3"/>
    <g id="Group_230" data-name="Group 230" transform="translate(373.382 4948.588)">
      <path id="Path_200" data-name="Path 200" d="M-1087.515,0h5.045V4.98h4.608V0h5.045V15.07h-5.045V10.025h-4.608V15.07h-5.045V0Z" transform="translate(1087.515)" fill="#f7f8f3"/>
      <path id="Path_201" data-name="Path 201" d="M-1005.781,5h-4.434V0H-996.3V5h-4.434V15.07h-5.045V5Z" transform="translate(1027.098)" fill="#f7f8f3"/>
      <path id="Path_202" data-name="Path 202" d="M-936.415,0h5.264l3.233,5.307L-924.687,0h5.264V15.07h-5.023V7.6l-3.473,5.351h-.087L-931.479,7.6V15.07h-4.936Z" transform="translate(969.416)" fill="#f7f8f3"/>
      <path id="Path_203" data-name="Path 203" d="M-847.215,0h5.045V10.09h7.1v4.98h-12.121V0Z" transform="translate(899.698)" fill="#f7f8f3"/>
    </g>
  </g>
</svg>
