<svg xmlns="http://www.w3.org/2000/svg" width="111.823" height="111.824" viewBox="0 0 111.823 111.824">
  <path id="Subtraction_3" data-name="Subtraction 3" d="M-2447.177,111.824H-2559V0h111.823V111.823Zm-36.706-24.462h0l-8.539,4.962c2.031,4.012,7.217,10.745,19.148,10.745,10.578,0,17.412-5.748,17.412-14.643,0-8.8-5.122-12.714-13.969-16.508l-2.627-1.125c-4.392-1.9-6.461-3.151-6.461-6.381,0-2.651,2.068-4.5,5.028-4.5a6.639,6.639,0,0,1,3.837,1.04,9.517,9.517,0,0,1,2.925,3.463l8.183-5.254c-3.308-5.818-7.917-8.413-14.945-8.413-9.061,0-15.389,5.708-15.389,13.881,0,9.188,6.066,13.04,12.621,15.833l2.626,1.127c4.771,2.087,7.651,3.346,7.651,6.976a4.507,4.507,0,0,1-1.935,3.719,8.674,8.674,0,0,1-5.2,1.464,10.765,10.765,0,0,1-6.281-1.812,14.369,14.369,0,0,1-4.084-4.57Zm-37.121.911h0l-8.553,5.179c2.069,4.378,6.483,9.6,15.763,9.6,10.119,0,15.692-5.623,15.692-15.833V51.345h-10.509v35.73c0,2.5-.5,4.229-1.521,5.271a5.429,5.429,0,0,1-4.11,1.332,5.62,5.62,0,0,1-4.116-1.6,15.953,15.953,0,0,1-2.646-3.8Z" transform="translate(2559)" fill="#f7f8f3"/>
</svg>
