<svg xmlns="http://www.w3.org/2000/svg" width="112.823" height="112.823" viewBox="0 0 112.823 112.823">
  <path id="Subtraction_5" data-name="Subtraction 5" d="M-2447.177,111.824H-2559V0h111.823V111.823Zm-91.893-45.853a2.788,2.788,0,0,0-2.016.81,2.636,2.636,0,0,0-.831,1.946,2.614,2.614,0,0,0,.831,1.926,2.827,2.827,0,0,0,2.016.79,2.855,2.855,0,0,0,2.036-.79,2.584,2.584,0,0,0,.85-1.926,2.606,2.606,0,0,0-.85-1.946A2.816,2.816,0,0,0-2539.069,65.971Zm55.389-24.037v4.094h8.125V71h4.7V46.028h8.144V41.934Zm-17.553,0V71h15.912V66.923h-11.207V58.33h9.744V54.256h-9.744V46.028h10.575V41.934Zm-25.876,6.019h.119a9.656,9.656,0,0,0,.85,1.682L-2512.6,71h5.14V41.934h-4.527V60.66a26.546,26.546,0,0,0,.2,3.912h-.079c-.157-.322-.516-.922-1.067-1.784l-13.086-20.855h-5.476V71h4.547V51.945a30.876,30.876,0,0,0-.158-3.991Z" transform="translate(2559.5 0.5)" fill="#f7f8f3" stroke="rgba(0,0,0,0)" stroke-miterlimit="10" stroke-width="1"/>
</svg>
