<svg xmlns="http://www.w3.org/2000/svg" width="99.142" height="111.823" viewBox="0 0 99.142 111.823">
  <path id="Path_216" data-name="Path 216" d="M78.58,111.823a8.692,8.692,0,0,1-4.3-1.154l-13.691-8.1c-2.041-1.154-1.043-1.553-.377-1.775A26.971,26.971,0,0,0,66.4,97.977a1,1,0,0,1,1.021.089L77.936,104.3a1.285,1.285,0,0,0,1.265,0l40.984-23.654a1.313,1.313,0,0,0,.621-1.109V32.23a1.322,1.322,0,0,0-.643-1.132L79.2,7.467a1.285,1.285,0,0,0-1.265,0L37,31.121a1.3,1.3,0,0,0-.643,1.132V79.538A1.224,1.224,0,0,0,37,80.625L48.225,87.1c6.1,3.04,9.83-.533,9.83-4.149V36.269a1.175,1.175,0,0,1,1.2-1.176h5.192a1.189,1.189,0,0,1,1.2,1.176V82.977c0,8.121-4.438,12.781-12.138,12.781-2.374,0-4.238,0-9.431-2.574l-10.74-6.191a8.629,8.629,0,0,1-4.3-7.478V32.23a8.656,8.656,0,0,1,4.3-7.478L74.275,1.1a8.985,8.985,0,0,1,8.609,0l40.984,23.676a8.629,8.629,0,0,1,4.3,7.478V79.538a8.683,8.683,0,0,1-4.3,7.478L82.885,110.669A8.63,8.63,0,0,1,78.58,111.823ZM111.664,65.2c0-8.853-5.991-11.206-18.572-12.87-12.737-1.686-14.024-2.552-14.024-5.525,0-2.463,1.087-5.747,10.518-5.747,8.41,0,11.516,1.82,12.8,7.5a1.188,1.188,0,0,0,1.154.932h5.325a1.159,1.159,0,0,0,.865-.377,1.236,1.236,0,0,0,.311-.91c-.821-9.785-7.323-14.334-20.459-14.334-11.694,0-18.661,4.926-18.661,13.2,0,8.964,6.945,11.45,18.151,12.559,13.424,1.309,14.468,3.284,14.468,5.924,0,4.571-3.684,6.524-12.315,6.524C80.377,72.082,78,69.353,77.2,63.961a1.174,1.174,0,0,0-1.176-1h-5.3a1.17,1.17,0,0,0-1.176,1.176c0,6.9,3.75,15.133,21.7,15.133,12.958-.022,20.414-5.148,20.414-14.068Z" transform="translate(-29.031 0)" fill="#f7f8f3"/>
</svg>
