<svg id="Group_239" data-name="Group 239" xmlns="http://www.w3.org/2000/svg" width="112.434" height="111.823" viewBox="0 0 112.434 111.823">
  <path id="path8615" d="M54.411,0C25.895,0,27.626,12.425,27.626,12.425V25.257H54.92v3.87H16.831S-1.4,27.09-1.4,55.912s15.989,27.8,15.989,27.8h9.471V70.169S23.552,54.18,39.745,54.18H66.734s15.175.2,15.175-14.665V14.869S84.251,0,54.411,0ZM39.44,8.657a4.889,4.889,0,0,1,4.889,4.888,4.888,4.888,0,1,1-9.777,0A4.889,4.889,0,0,1,39.44,8.657Z" transform="translate(1.399)" fill="#f7f8f3"/>
  <path id="path8620" d="M159.307,212.4c28.516,0,26.785-12.425,26.785-12.425V187.141H158.8v-3.87h38.089s18.23,2.037,18.23-26.785-15.989-27.8-15.989-27.8h-9.471v13.341s.509,15.989-15.684,15.989H146.984s-15.175-.1-15.175,14.869v24.646S129.467,212.4,159.307,212.4Zm15.073-8.555a4.89,4.89,0,0,1-4.889-4.889,4.888,4.888,0,1,1,4.889,4.889Z" transform="translate(-102.683 -100.575)" fill="#f7f8f3"/>
</svg>
