<svg xmlns="http://www.w3.org/2000/svg" width="91.327" height="111.824" viewBox="0 0 91.327 111.824">
  <path id="Subtraction_8" data-name="Subtraction 8" d="M-2511.56,111.823h-.011a17.831,17.831,0,0,1-7.049-1.417,20.959,20.959,0,0,1-6.757-4.784,39.951,39.951,0,0,1-11.24-6.381,16.321,16.321,0,0,1-6.22-4.02,18.682,18.682,0,0,1-5.532-11.008c-.179-.516-.366-1.029-.546-1.526l-.008-.022a36.7,36.7,0,0,1-1.818-6.191,16.6,16.6,0,0,1-4.305-13.848,18.355,18.355,0,0,1,2.713-7.14,15.14,15.14,0,0,1,4.644-4.716l.791-1.411c-.014-4.664.955-8.368,2.963-11.324a20.593,20.593,0,0,1,7.036-6.078l-.21-.056c-1.539-.408-3.131-.831-3.573-2.825-2.9-.754-3.42-2.175-3.677-3.447-.055-.038-.121-.08-.195-.128a11.3,11.3,0,0,1-1.065-.765L-2559,48.229l13.379-23.494a3.848,3.848,0,0,1-1.674-3.4,3.585,3.585,0,0,1-1.753-3.955c-1.478-1.636-1.872-2.983-1.24-4.237-1.754-2.214-.992-3.394-.256-4.535l.026-.041a3.371,3.371,0,0,1-.166-3.314,3.22,3.22,0,0,1,2.936-1.368,6.762,6.762,0,0,1,.789.048,4.529,4.529,0,0,1,4.046-1.75c.389,0,.716.025.932.042.1.007.172.013.221.014a2.745,2.745,0,0,1,2.491-1.1,8.386,8.386,0,0,1,1.068.076,3.521,3.521,0,0,1,2.454-.97,6.529,6.529,0,0,1,2.346.521A3.155,3.155,0,0,1-2531.536,0c.027,0,.054,0,.08,0a4.879,4.879,0,0,1,1.943.552,9.712,9.712,0,0,0,.97.387,4.976,4.976,0,0,1,1.535-.283,3.309,3.309,0,0,1,1.818.6,5.2,5.2,0,0,0,.831.423,5.939,5.939,0,0,1,1.214-.14,4.039,4.039,0,0,1,3.14,1.7c.123.129.249.26.378.391l1.479-.029c4.4,2.59,6.231,8.024,6.689,9.628.458-1.6,2.3-7.038,6.694-9.628l1.479.029c.124-.125.244-.251.36-.373l.014-.015a4.037,4.037,0,0,1,3.142-1.7,5.855,5.855,0,0,1,1.214.14,5.192,5.192,0,0,0,.829-.422,3.317,3.317,0,0,1,1.821-.6,4.968,4.968,0,0,1,1.535.283,9.656,9.656,0,0,0,.97-.387A4.87,4.87,0,0,1-2491.46,0a3.12,3.12,0,0,1,1.948.771,6.53,6.53,0,0,1,2.345-.52,3.522,3.522,0,0,1,2.454.969,8.4,8.4,0,0,1,1.066-.076,2.748,2.748,0,0,1,2.493,1.1c.049,0,.126-.007.223-.014.216-.016.542-.041.929-.041a4.527,4.527,0,0,1,4.046,1.75,6.767,6.767,0,0,1,.791-.049,3.219,3.219,0,0,1,2.936,1.367,3.37,3.37,0,0,1-.166,3.314l.027.042c.737,1.141,1.5,2.32-.256,4.532.632,1.254.238,2.6-1.24,4.238a3.584,3.584,0,0,1-1.752,3.955c.237,2.217-1.848,3.58-2.739,4.163-.074.048-.14.092-.2.129-.256,1.272-.773,2.692-3.677,3.446-.443,1.994-2.033,2.416-3.572,2.824l-.05.013-.162.043a20.619,20.619,0,0,1,7.036,6.079c2.008,2.956,2.977,6.659,2.963,11.323l.793,1.41a15.142,15.142,0,0,1,4.643,4.716,18.363,18.363,0,0,1,2.713,7.14,16.6,16.6,0,0,1-4.3,13.849,36.744,36.744,0,0,1-1.819,6.191l-.021.058c-.176.485-.359.987-.533,1.491a18.683,18.683,0,0,1-5.532,11.008,16.319,16.319,0,0,1-6.219,4.02,39.948,39.948,0,0,1-11.24,6.381C-2501.864,110.09-2511.48,111.823-2511.56,111.823Zm-.013-15.356a26.256,26.256,0,0,0-6.671.948,11.6,11.6,0,0,0-5,2.427,1.987,1.987,0,0,0-.659,1.433,3.98,3.98,0,0,0,1.359,2.31,16.073,16.073,0,0,0,10.609,4.761c.147,0,.3,0,.461-.01l.175,0c4.049,0,8.166-2.387,10.449-4.753a4.926,4.926,0,0,0,1.691-2.988c-.006-1.084-1.32-2.131-3.7-2.951a24.123,24.123,0,0,0-7.43-1.192c-.287,0-.573.006-.848.018C-2511.282,96.469-2511.427,96.467-2511.573,96.467Zm28.61-22.787c-2.676,0-6.146,2.322-10.036,6.713-3.881,4.547-6.156,12.989-3.255,15.725a6.587,6.587,0,0,0,3.977,1.124c1.993,0,7.112-.669,11.578-6.867a13.966,13.966,0,0,0,2.514-8.955c-.115-2.927-.976-5.675-2.143-6.837A4.216,4.216,0,0,0-2482.964,73.68Zm-57.482,1.8a5.053,5.053,0,0,0-2.67.715c-2.381,1.813-2.734,7.943.565,13.841,4.453,6.4,9.894,6.895,11.455,6.895a6.605,6.605,0,0,0,3.346-.794,4.378,4.378,0,0,0,1.52-3.107c.4-3.336-1.23-8.169-3.78-11.241C-2533.412,77.834-2537.314,75.475-2540.446,75.476Zm29.251-6.22h-.069a13.182,13.182,0,0,0-8.971,3.478,11.2,11.2,0,0,0-3.677,8.309c0,.041,0,.082,0,.123.037,6.432,5.74,11.664,12.714,11.664h.069a13.182,13.182,0,0,0,8.971-3.478,11.2,11.2,0,0,0,3.677-8.309V80.92C-2498.517,74.488-2504.22,69.255-2511.194,69.256Zm-33.213-16.133a1.861,1.861,0,0,0-.48.067,13.05,13.05,0,0,0-6.765,10.543c-.343,4.313,1.288,8.708,4.057,10.935a1.336,1.336,0,0,0,.543.12c2.131,0,3.979-5.45,4.7-10.833.522-3.873.563-8.6-.889-10.265A1.515,1.515,0,0,0-2544.408,53.123Zm64.78-.312a1.515,1.515,0,0,0-1.169.568c-1.452,1.66-1.412,6.391-.89,10.265.725,5.383,2.573,10.833,4.7,10.833a1.333,1.333,0,0,0,.543-.12c2.769-2.227,4.4-6.622,4.057-10.936a13.05,13.05,0,0,0-6.765-10.544A1.864,1.864,0,0,0-2479.627,52.811Zm-44.492-6.889a14.093,14.093,0,0,0-11.394,6.6A14.483,14.483,0,0,0-2537.8,63.3a10.393,10.393,0,0,0,4.408,6.7,10.118,10.118,0,0,0,5.565,1.625,14.092,14.092,0,0,0,11.393-6.6,14.482,14.482,0,0,0,2.287-10.779,10.392,10.392,0,0,0-4.408-6.7A10.116,10.116,0,0,0-2524.12,45.921Zm25.354-.625a10.118,10.118,0,0,0-5.567,1.625,10.391,10.391,0,0,0-4.408,6.7,14.485,14.485,0,0,0,2.286,10.78,14.094,14.094,0,0,0,11.393,6.6,10.114,10.114,0,0,0,5.566-1.625,10.393,10.393,0,0,0,4.408-6.7,14.482,14.482,0,0,0-2.287-10.778A14.089,14.089,0,0,0-2498.766,45.3Zm3.543-11.359a19.621,19.621,0,0,0-3.252.279.443.443,0,0,0-.417.525c.121,1.441,3.886,5.292,7.565,8.469,3.429,2.961,8.063,6.42,9.836,6.419a.591.591,0,0,0,.673-.593,14.624,14.624,0,0,0-3.833-10.942A14.5,14.5,0,0,0-2495.223,33.938Zm-33.63-.312a14.5,14.5,0,0,0-10.571,4.158,14.625,14.625,0,0,0-3.832,10.942.591.591,0,0,0,.672.593c1.773,0,6.407-3.458,9.836-6.42,3.679-3.177,7.445-7.028,7.565-8.469a.443.443,0,0,0-.417-.525A19.6,19.6,0,0,0-2528.853,33.625Zm17.063-2.208h0a14.178,14.178,0,0,0-7.754,2.519c-2.089,1.426-3.444,3.17-3.45,4.444-.008,1.583,1.149,3.19,3.173,4.41a16.878,16.878,0,0,0,8.363,2.093h.2a17.731,17.731,0,0,0,8.28-1.721c1.984-1.069,3.083-2.544,3.094-4.153a5.228,5.228,0,0,0-1.784-3.57,14.78,14.78,0,0,0-9.714-4.02h-.113c-.1,0-.194,0-.29,0Zm28.6-21.036v0c-9.89,5.1-16.482,9.571-20.152,13.664,1.6,6.407,9.441,7.1,12.739,7.1.463,0,.91-.013,1.328-.038a2.532,2.532,0,0,1-1.44-1.271,4.605,4.605,0,0,1,1.941-.359,9.284,9.284,0,0,0,3.877-.855,1.919,1.919,0,0,1-1.525-.9c.287-.091.581-.182.866-.27a13.372,13.372,0,0,0,4.388-1.9l-.017,0c-.095,0-.19,0-.281.008-.117.005-.236.01-.356.01a2.4,2.4,0,0,1-1.492-.472c.382-.206.775-.4,1.154-.6a14.71,14.71,0,0,0,3.874-2.51l-.256-.006c-.8-.017-1.636-.035-1.891-.334a19.468,19.468,0,0,0,4.039-3.276,8.108,8.108,0,0,1-.946.065,1.931,1.931,0,0,1-1.144-.263c.344-.352.72-.695,1.084-1.026a9.566,9.566,0,0,0,2.362-2.76,4.335,4.335,0,0,1-1.392.285,1.591,1.591,0,0,1-1.009-.313,3.3,3.3,0,0,1,1-1.049,7.023,7.023,0,0,0,2.166-2.567l-.193.019c-.507.05-1.03.1-1.418.1-.339,0-.542-.039-.621-.12a10.34,10.34,0,0,1,1.9-3.838l.1-.145c-.519-.008-1.112-.011-1.687-.015a20.489,20.489,0,0,1-3.458-.137.015.015,0,0,1,0-.017l1.3-1.327a6.5,6.5,0,0,0-1.687-.213,13.515,13.515,0,0,0-3.99.778.622.622,0,0,1-.278-.485c-.006-.453.577-.979,1.125-1.436a20.79,20.79,0,0,0-4.745,1.186.611.611,0,0,1-.238-.456c0-.368.417-.742.82-1.1a6.515,6.515,0,0,0,.52-.5,12.162,12.162,0,0,0-4.971,1.949c-.724-.693-.2-1.3.3-1.9.076-.089.143-.169.209-.25a11.782,11.782,0,0,0-4,2.529l-.177.154c-.05-.068-.105-.134-.158-.2-.344-.415-.7-.841-.1-1.891a10.678,10.678,0,0,0-3.333,2.91,1.386,1.386,0,0,1-.571-1.57,4.456,4.456,0,0,0,.034-.493,21.076,21.076,0,0,0-2.672,2.717l0,.006c-.3.349-.615.71-.938,1.063a3.183,3.183,0,0,1-.622-1.667,19.812,19.812,0,0,0-3.651,5.022,10.637,10.637,0,0,0-1.315,6.189,5.949,5.949,0,0,0,3.667,4.466C-2499.255,17.228-2492.081,13.4-2483.188,10.381Zm-58.317,15.162h0a13.362,13.362,0,0,0,4.385,1.9l.006,0c.284.088.577.178.863.269a1.919,1.919,0,0,1-1.525.9,9.284,9.284,0,0,0,3.877.855,4.606,4.606,0,0,1,1.941.359,2.528,2.528,0,0,1-1.44,1.271c.408.024.855.038,1.328.038,3.3,0,11.14-.692,12.739-7.1-3.67-4.093-10.262-8.563-20.154-13.664,8.89,3.022,16.065,6.846,21.934,11.687a5.947,5.947,0,0,0,3.667-4.467,10.636,10.636,0,0,0-1.315-6.188,19.807,19.807,0,0,0-3.651-5.022,3.175,3.175,0,0,1-.621,1.667c-.32-.348-.629-.7-.927-1.049l-.019-.022a21.06,21.06,0,0,0-2.67-2.714,4.416,4.416,0,0,0,.034.492,1.384,1.384,0,0,1-.571,1.57,10.665,10.665,0,0,0-3.334-2.909c.6,1.049.248,1.475-.092,1.887-.051.062-.109.132-.161.2l-.174-.151a11.8,11.8,0,0,0-4.007-2.532c.07.086.144.173.209.25.5.592,1.022,1.2.3,1.9a12.136,12.136,0,0,0-4.972-1.949,6.513,6.513,0,0,0,.52.5c.4.362.819.736.82,1.1a.611.611,0,0,1-.238.456,20.748,20.748,0,0,0-4.746-1.186c.548.458,1.131.986,1.125,1.436a.623.623,0,0,1-.277.484,13.512,13.512,0,0,0-3.99-.778,6.49,6.49,0,0,0-1.688.214l1.3,1.327a.016.016,0,0,1,0,.017,20.484,20.484,0,0,1-3.457.137c-.575,0-1.169.007-1.687.015l.1.146a10.315,10.315,0,0,1,1.9,3.836c-.079.081-.281.12-.621.12-.388,0-.911-.051-1.417-.1l-.193-.019a7.023,7.023,0,0,0,2.165,2.567,3.313,3.313,0,0,1,1,1.049,1.592,1.592,0,0,1-1.01.313,4.325,4.325,0,0,1-1.392-.285,9.581,9.581,0,0,0,2.361,2.759c.365.332.741.674,1.085,1.027a1.931,1.931,0,0,1-1.144.263,8.075,8.075,0,0,1-.945-.065,19.489,19.489,0,0,0,4.039,3.276c-.255.3-1.086.317-1.89.334l-.256.006a14.693,14.693,0,0,0,3.874,2.51c.38.193.773.392,1.154.6a2.4,2.4,0,0,1-1.492.472c-.119,0-.239-.005-.354-.01-.1,0-.2-.009-.3-.01Z" transform="translate(2559 0)" fill="#f7f8f3"/>
</svg>
