<svg id="Group_235" data-name="Group 235" xmlns="http://www.w3.org/2000/svg" width="111.823" height="99.561" viewBox="0 0 111.823 99.561">
  <ellipse id="Ellipse_60" data-name="Ellipse 60" cx="9.939" cy="9.939" rx="9.939" ry="9.939" transform="translate(44.509 41.469) rotate(-9.217)" fill="#f7f8f3"/>
  <path id="Path_212" data-name="Path 212" d="M91.859,60.193q-1.628-.561-3.359-1.064.271-1.122.5-2.213c2.785-13.517.777-24.07-5.241-27.54-5.8-3.345-15.218-.161-25.191,8.518q-1.3,1.132-2.6,2.381-.838-.8-1.672-1.54c-10.32-9.163-20.465-12.693-26.476-9.214-5.8,3.355-7.74,13.1-5.2,26.08q.332,1.7.766,3.454-2.014.58-3.9,1.235C7.283,64.544,0,71.075,0,77.761c0,6.933,7.866,13.929,20.528,18.256q1.347.461,2.783.878-.466,1.906-.816,3.744c-2.411,12.7-.391,22.267,5.4,25.6a10.8,10.8,0,0,0,5.468,1.349c5.776,0,13.166-3.511,20.6-10.011q1.073-.938,2.153-1.975,1.421,1.358,2.84,2.581c7.168,6.169,14.073,9.446,19.529,9.446a10.531,10.531,0,0,0,5.352-1.337c6-3.474,8.114-13.786,5.515-26.912q-.267-1.348-.609-2.748.938-.281,1.84-.579c13.1-4.341,21.239-11.352,21.239-18.3C111.823,71.064,104.36,64.5,91.859,60.193ZM81.124,33.942c3.11,1.794,5.285,9.415,2.711,21.911q-.2.963-.438,1.956A114.4,114.4,0,0,0,68.844,55.52a113.016,113.016,0,0,0-9.188-11.485q1.186-1.132,2.369-2.165C71.02,34.044,78.23,32.274,81.124,33.942Zm-9.9,52.746q-2.587,4.486-5.253,8.494c-3.259.231-6.625.35-10.055.35s-6.746-.1-9.924-.3c-1.872-2.733-3.675-5.587-5.37-8.515h0c-1.7-2.929-3.262-5.887-4.685-8.834,1.326-2.761,2.771-5.521,4.318-8.238l.353-.611c1.691-2.931,3.47-5.764,5.311-8.467,3.283-.247,6.634-.377,10-.377h0c3.391,0,6.741.127,10.008.372,1.813,2.681,3.584,5.507,5.286,8.446Q73.8,73.488,75.943,77.8C74.514,80.74,72.935,83.716,71.221,86.688Zm7.556-2.806c1.354,3.122,2.5,6.136,3.427,9.013-2.981.669-6.182,1.218-9.548,1.638q1.581-2.527,3.131-5.212Q77.355,86.6,78.777,83.882ZM56.1,108.05c-2.07-2.25-4.135-4.719-6.153-7.352q2.923.1,5.963.1,3.136,0,6.2-.127C60.114,103.369,58.1,105.835,56.1,108.05Zm-20.046-18.7q1.56,2.7,3.21,5.278c-3.342-.387-6.491-.9-9.417-1.526.918-2.924,2.027-5.953,3.3-9.024q1.383,2.645,2.9,5.272ZM33.141,71.672c-1.247-3-2.329-5.952-3.229-8.823,2.925-.643,6.026-1.177,9.241-1.595q-1.148,1.807-2.254,3.67h-.014L36.035,66.4Q34.521,69.025,33.141,71.672ZM55.964,47.8c2.011,2.194,4.026,4.623,6.014,7.246q-3.006-.13-6.065-.131h0q-3.031,0-6.012.127C51.884,52.452,53.915,50.026,55.964,47.8Zm19.8,18.563q-1.514-2.615-3.1-5.113c3.239.425,6.358.973,9.309,1.637-.892,2.827-1.986,5.774-3.259,8.794Q77.321,69.051,75.768,66.365ZM27.786,54.589c-2.29-11.7-.221-18.832,2.67-20.506a5.436,5.436,0,0,1,2.73-.617c3.9,0,10.193,2.628,17.606,9.211.491.436.984.89,1.478,1.359a114.435,114.435,0,0,0-9.256,11.471,115.582,115.582,0,0,0-14.527,2.247Q28.093,56.146,27.786,54.589ZM22.232,91.03C11.1,87.224,5.271,81.474,5.271,77.761c0-3.451,4.931-8.652,15.947-12.493q1.714-.6,3.577-1.131A114.466,114.466,0,0,0,30.1,77.869a115.261,115.261,0,0,0-5.384,13.948Q23.438,91.442,22.232,91.03Zm8.3,30.648c-2.989-1.722-5.031-8.592-2.854-20.055q.318-1.674.751-3.434A111.638,111.638,0,0,0,43.087,100.3a115.078,115.078,0,0,0,9.336,11.549q-.967.924-1.927,1.763C41.636,121.358,33.744,123.533,30.527,121.677Zm53.656-21.269c2.285,11.544.228,19.467-2.985,21.327a5.421,5.421,0,0,1-2.728.624c-3.628,0-9.3-2.34-16.074-8.167q-1.293-1.113-2.6-2.369a111.487,111.487,0,0,0,9.117-11.591A112.226,112.226,0,0,0,83.644,97.97Q83.945,99.211,84.183,100.408Zm4.743-9.353q-.792.262-1.617.51a111.315,111.315,0,0,0-5.522-13.791,112.782,112.782,0,0,0,5.3-13.567q1.571.461,3.055.97c11.274,3.881,16.409,9.244,16.409,12.584C106.552,81.351,101.037,87.043,88.927,91.055Z" transform="translate(0 -28.073)" fill="#f7f8f3"/>
</svg>
