<svg xmlns="http://www.w3.org/2000/svg" width="405.014" height="74.898" viewBox="0 0 405.014 74.898">
  <g id="layer1" transform="translate(-110.747 -202.367)">
    <g id="g7345" transform="translate(110.747 202.367)">
      <path id="path1864" d="M197.819,204.036v2.585h-1.613c-6.06,0-7.756,1.853-7.756,8.4v32.394c0,6.54,1.7,8.4,7.756,8.4h1.613V258.4H167.927v-2.581h1.618c6.06,0,7.756-1.862,7.756-8.4V212.276h-.166L155.488,258.4h-2.5l-21.73-45.317h-.166v34.335c0,6.54,1.7,8.4,7.752,8.4h1.138V258.4h-21.73v-2.581h1.13c5.977,0,7.669-1.862,7.669-8.4V215.023c0-6.549-1.691-8.4-7.669-8.4h-1.207v-2.585h21L158,243.541l18.656-39.505Z" transform="translate(-24.718 -185.046)" fill="#0f6a37"/>
      <path id="path1868" d="M163.588,238.351a19.766,19.766,0,0,1-4.12,4.6,10.366,10.366,0,0,1-6.544,2.507c-3.636,0-6.139-2.424-6.139-5.9v-.89a35.046,35.046,0,0,1-8.319,5.655,9.892,9.892,0,0,1-4.6,1.133c-5.576,0-9.13-4.042-9.13-10.259a10.292,10.292,0,0,1,2.908-7.111c2.346-2.263,5.415-3.876,11.227-5.895l7.272-2.424.645-.245v-5.093c0-4.277-1.535-5.895-5.733-5.895-3.553,0-5.655,1.456-5.655,4.042a8.525,8.525,0,0,0,.087,1.133v.4c0,2.747-1.618,4.443-4.2,4.443a3.99,3.99,0,0,1-4.207-4.2c0-5.332,6.139-9.047,14.784-9.047,5.01,0,9.13,1.051,11.715,3.069,1.936,1.617,2.825,3.558,2.908,6.867V234.4a12.68,12.68,0,0,0,.24,3.71,1.525,1.525,0,0,0,.567.894,1.313,1.313,0,0,0,.968.318c1.133,0,2.581-1.047,4.042-2.825ZM146.3,223.17c-7.107,2.42-6.618,2.176-8.968,3.632a8.437,8.437,0,0,0-2.664,2.664,5.99,5.99,0,0,0-.724,2.908c0,3.392,2.341,6.143,5.167,6.143,2.019,0,5.572-1.866,7.673-3.876V223Z" transform="translate(49.741 -170.569)" fill="#0f6a37"/>
      <path id="path1872" d="M142.81,210.888c4.194-3.719,8.559-5.576,12.84-5.576,4.77,0,8.886,2.5,10.259,6.3.816,2.176,1.051,4.761,1.051,10.176v13.734c0,4.6.968,5.812,4.526,5.812h.724v2.585H152.258v-2.585h.4c3.641,0,4.6-1.207,4.6-5.812V222.437c0-5.659-.235-7.028-1.207-8.563a5.236,5.236,0,0,0-4.282-2.18,14.4,14.4,0,0,0-8.964,3.553v20.278c0,4.6.968,5.812,4.521,5.812h1.295v2.585h-20.6v-2.585h.488c3.549,0,4.521-1.207,4.521-5.812V218.967c0-3.475-.166-5.01-.65-6.222a3.107,3.107,0,0,0-2.982-1.857,5.278,5.278,0,0,0-1.456.161v-2.912l11.471-2.825h3.392Z" transform="translate(86.263 -170.566)" fill="#0f6a37"/>
      <path id="path1876" d="M169.378,230.65l.074,3.392c.087,2.668.89,3.793,2.825,3.793a12.777,12.777,0,0,0,2.424-.48V240.1l-11.872,3.876H159.6v-5.655c-4.12,3.636-8.724,5.655-12.927,5.655a10.6,10.6,0,0,1-10.577-7.918c-.567-2.341-.65-3.392-.65-9.208V213.764c0-4.194-.973-5.729-3.876-5.729v-2.594h13.647v22.781c0,5.175.41,6.623,2.023,8a5.7,5.7,0,0,0,3.88,1.369,10.41,10.41,0,0,0,5.568-1.692,13.549,13.549,0,0,0,2.912-1.862V213.764c0-4.521-.973-5.729-4.526-5.729h-1.7v-2.594h16Z" transform="translate(127.397 -169.084)" fill="#0f6a37"/>
      <path id="path1880" d="M150.027,250.894c0,4.443.973,5.816,4.286,5.816h.24V259.3H135.491V256.71h.24c3.636,0,4.526-1.212,4.526-5.816V217.37c0-4.2-.074-5.655-.485-6.789a3.1,3.1,0,0,0-3-2.019h-.724a1.374,1.374,0,0,0-.488.086l-.48-2.673,11.632-2.018h3.309Z" transform="translate(167.338 -185.929)" fill="#0f6a37"/>
      <path id="path1884" d="M136.927,259.29v-2.583h1.295c3.553,0,4.521-1.212,4.521-5.816V234.009c0-3.554-.161-5.088-.645-6.218a3.058,3.058,0,0,0-2.987-1.944,4.3,4.3,0,0,0-1.7.323l-.65-2.664,12.361-2.825h3.392v30.21c0,4.6.973,5.816,4.526,5.816h.807v2.586Zm10.987-43.7a5.816,5.816,0,1,1,5.816-5.816,5.793,5.793,0,0,1-5.816,5.816" transform="translate(186.42 -185.933)" fill="#0f6a37"/>
      <path id="path1888" d="M138.628,259.287V256.7h1.618c3.553,0,4.521-1.212,4.521-5.816V226.9h-6.139v-4.608h6.139v-1.208c0-9.936,7.6-17.126,18.011-17.126,5.258,0,8.728,2.341,8.728,5.978,0,2.664-1.862,4.525-4.765,4.525-1.535,0-2.908-.89-4.194-2.83l-.816-1.133c-.968-1.535-1.857-2.1-3.231-2.1a3.717,3.717,0,0,0-3.632,3.314,19.189,19.189,0,0,0-.405,5.167v5.41h7.189V226.9h-7.189v23.988c0,4.6.968,5.816,4.6,5.816h2.585v2.585Z" transform="translate(207.583 -185.931)" fill="#0f6a37"/>
      <path id="path1892" d="M174.566,231.323a22.215,22.215,0,0,1-5.895,9.531,15.468,15.468,0,0,1-11.07,4.6c-9.932,0-16.96-8.319-16.96-20.191,0-11.955,7.1-19.955,17.693-19.955,9.526,0,15.744,6.383,15.744,16.075v.89H149.448c.562,8.641,5.563,14.623,12.273,14.623a12.712,12.712,0,0,0,10.9-6.706ZM163.5,218.151v-.641c0-5.254-2.507-8.646-6.3-8.646-4.36,0-7.351,3.558-7.835,9.287Z" transform="translate(230.449 -170.56)" fill="#0f6a37"/>
      <path id="path1896" d="M175.674,260.988,164.7,271.653v-43.29l10.974-10.66Zm-18.111.131-10.97,10.66V228.494l10.97-10.66Zm-18.024.012L128.573,271.8v-43.29l10.965-10.664Zm-28.924,14.719h73.351V202.5H110.615Z" transform="translate(-110.615 -202.5)" fill="#0f6a37"/>
    </g>
  </g>
</svg>
