<svg xmlns="http://www.w3.org/2000/svg" width="666.202" height="74.898" viewBox="0 0 666.202 74.898">
  <g id="Group_146" data-name="Group 146" transform="translate(0 -322.551)">
    <g id="Group_144" data-name="Group 144">
      <g id="Group_143" data-name="Group 143">
        <path id="Path_136" data-name="Path 136" d="M68.715,395.9V359.021q0-15.456.411-27.818H68.92q-3.609,12.054-8.862,27.613L47.39,395.9H33.276L20.6,358.816Q15.347,343.26,11.742,331.2h-.206q.409,12.363.415,27.818V395.9H0V322.551H19.883l11.846,34.923q4.842,14.117,8.447,27.613h.205q4.019-14.324,8.552-27.613l11.851-34.923H80.666V395.9Z" fill="#4e504f"/>
        <path id="Path_137" data-name="Path 137" d="M133.154,345.422a22.749,22.749,0,0,1,8.962,9.634,35.886,35.886,0,0,1,0,29.36,22.775,22.775,0,0,1-8.962,9.633,26.618,26.618,0,0,1-13.653,3.4,26.879,26.879,0,0,1-13.7-3.4,22.666,22.666,0,0,1-9.017-9.633,35.886,35.886,0,0,1,0-29.36,22.641,22.641,0,0,1,9.017-9.634,26.849,26.849,0,0,1,13.7-3.4A26.588,26.588,0,0,1,133.154,345.422Zm-23.542,10.816q-3.61,4.948-3.6,13.5t3.6,13.494a12.363,12.363,0,0,0,19.782,0q3.6-4.943,3.6-13.494t-3.6-13.5a12.368,12.368,0,0,0-19.782,0Z" fill="#4e504f"/>
        <path id="Path_138" data-name="Path 138" d="M197.748,347.791q4.992,5.465,5,16.072V395.9H191V364.894q0-13.085-10.61-13.087a10.821,10.821,0,0,0-8.606,3.915q-3.345,3.918-3.345,11.13V395.9H156.692V343.565h11.125v6.8h.206a18.607,18.607,0,0,1,15.661-8.036Q192.744,342.329,197.748,347.791Z" fill="#4e504f"/>
        <path id="Path_139" data-name="Path 139" d="M250.906,346.605q5.508,4.59,5.617,13.238H245.188q0-4.635-2.574-6.95t-7.419-2.319a10.709,10.709,0,0,0-6.385,1.648,5.3,5.3,0,0,0-2.268,4.531,4.881,4.881,0,0,0,1.187,3.45,8.136,8.136,0,0,0,3.45,2.063q2.264.773,7.21,2.008a93.744,93.744,0,0,1,10.56,3.244,15.891,15.891,0,0,1,6.489,4.842q2.728,3.351,2.733,9.118a13.689,13.689,0,0,1-5.978,11.59q-5.973,4.377-15.967,4.381-10.715,0-16.638-4.791T213.56,378.7h11.951q0,4.842,2.834,7.416t8.086,2.578a12.045,12.045,0,0,0,6.955-1.752,5.488,5.488,0,0,0,2.523-4.741,5.885,5.885,0,0,0-1.337-4.067,9.093,9.093,0,0,0-3.865-2.372q-2.527-.875-7.986-2.214a86.845,86.845,0,0,1-9.528-2.884,13.972,13.972,0,0,1-5.923-4.431q-2.472-3.087-2.473-8.551a13.573,13.573,0,0,1,2.578-8.187,16.591,16.591,0,0,1,7.21-5.513,27.385,27.385,0,0,1,10.715-1.957Q245.392,342.023,250.906,346.605Z" fill="#4e504f"/>
        <path id="Path_140" data-name="Path 140" d="M294.331,386.424v9.168a23.46,23.46,0,0,1-6.594.926q-8.344,0-12.107-3.76t-3.76-12.307V352.532h-8.757v-8.967h8.757V330.482h11.746v13.083h10.2v8.967h-10.2V378.7q0,4.426,1.648,6.334t5.462,1.908A10.278,10.278,0,0,0,294.331,386.424Z" fill="#4e504f"/>
        <path id="Path_141" data-name="Path 141" d="M340.225,347.175q5.508,5.15,5.512,15.346V382.1a58.507,58.507,0,0,0,1.337,13.8h-10.61a33.3,33.3,0,0,1-.721-7.315h-.205q-5.772,8.451-17.619,8.447-8.035,0-12.878-4.376a14.4,14.4,0,0,1-4.841-11.18,13.547,13.547,0,0,1,4.586-10.715q4.584-4.018,15.506-5.768a122.821,122.821,0,0,1,14.114-1.543V361.39q0-5.565-2.733-8.191a10.312,10.312,0,0,0-7.47-2.625,10.525,10.525,0,0,0-7.416,2.469,9.336,9.336,0,0,0-2.884,6.7h-11.54a17.558,17.558,0,0,1,6.028-12.777q5.615-4.942,15.812-4.942Q334.717,342.023,340.225,347.175Zm-17.875,25.24q-5.666.924-7.986,2.779a6.583,6.583,0,0,0-2.314,5.462,7.071,7.071,0,0,0,2.419,5.613q2.421,2.112,6.85,2.113a15.661,15.661,0,0,0,5.256-.876,11.088,11.088,0,0,0,4.222-2.629,11.918,11.918,0,0,0,2.834-4.582,22.664,22.664,0,0,0,.775-6.644v-2.578A110.967,110.967,0,0,0,322.35,372.415Z" fill="#4e504f"/>
        <path id="Path_142" data-name="Path 142" d="M390.549,343.36v10.4a20.152,20.152,0,0,0-4.121-.41q-7,0-10.765,4.38t-3.76,12.517V395.9H360.157V343.565h10.92v7.73h.206q5.256-8.451,14.94-8.451A19.524,19.524,0,0,1,390.549,343.36Z" fill="#4e504f"/>
        <path id="Path_143" data-name="Path 143" d="M399,395.9V322.551h11.746V395.9Z" fill="#4e504f"/>
        <path id="Path_144" data-name="Path 144" d="M461.377,347.175q5.508,5.15,5.512,15.346V382.1a58.507,58.507,0,0,0,1.337,13.8h-10.61a33.3,33.3,0,0,1-.721-7.315h-.2q-5.772,8.451-17.619,8.447-8.036,0-12.878-4.376a14.4,14.4,0,0,1-4.841-11.18,13.547,13.547,0,0,1,4.586-10.715q4.584-4.018,15.506-5.768a122.821,122.821,0,0,1,14.114-1.543V361.39q0-5.565-2.733-8.191a10.312,10.312,0,0,0-7.47-2.625,10.525,10.525,0,0,0-7.416,2.469,9.344,9.344,0,0,0-2.884,6.7h-11.54a17.557,17.557,0,0,1,6.028-12.777q5.615-4.942,15.812-4.942Q455.869,342.023,461.377,347.175ZM443.5,372.415q-5.666.924-7.986,2.779a6.583,6.583,0,0,0-2.314,5.462,7.071,7.071,0,0,0,2.419,5.613q2.421,2.112,6.85,2.113a15.671,15.671,0,0,0,5.257-.876,11.085,11.085,0,0,0,4.221-2.629,11.918,11.918,0,0,0,2.834-4.582,22.663,22.663,0,0,0,.775-6.644v-2.578A110.994,110.994,0,0,0,443.5,372.415Z" fill="#4e504f"/>
        <path id="Path_145" data-name="Path 145" d="M493.261,350.365a15.855,15.855,0,0,1,6.334-5.974,18.9,18.9,0,0,1,9.017-2.163,19.619,19.619,0,0,1,11.486,3.4,21.923,21.923,0,0,1,7.57,9.633,40.445,40.445,0,0,1,0,28.95,21.409,21.409,0,0,1-7.621,9.578,20.111,20.111,0,0,1-11.54,3.35,19.162,19.162,0,0,1-9.118-2.214,15.66,15.66,0,0,1-6.438-6.233h-.206v7.21H481.309V322.551h11.746v27.814Zm2.628,5.927q-3.457,4.893-3.454,13.444,0,8.445,3.454,13.393a10.708,10.708,0,0,0,9.218,4.943,10.994,10.994,0,0,0,9.478-5q3.5-4.994,3.505-13.339t-3.505-13.343a11,11,0,0,0-9.478-5A10.742,10.742,0,0,0,495.889,356.292Z" fill="#4e504f"/>
      </g>
    </g>
    <g id="Group_145" data-name="Group 145">
      <rect id="Rectangle_45" data-name="Rectangle 45" width="13.42" height="13.42" transform="translate(591.745 322.771)" fill="#4e504f"/>
      <rect id="Rectangle_46" data-name="Rectangle 46" width="13.42" height="13.42" transform="translate(652.782 322.771)" fill="#4e504f"/>
      <rect id="Rectangle_47" data-name="Rectangle 47" width="13.42" height="13.42" transform="translate(591.745 383.809)" fill="#4e504f"/>
      <rect id="Rectangle_48" data-name="Rectangle 48" width="13.42" height="13.42" transform="translate(652.782 383.809)" fill="#4e504f"/>
    </g>
  </g>
</svg>
