<svg xmlns="http://www.w3.org/2000/svg" width="151" height="151" viewBox="0 0 151 151">
  <g id="Group_228" data-name="Group 228" transform="translate(17.067 17.067)">
    <g id="Group_223" data-name="Group 223" transform="translate(-17.067 47.917)">
      <g id="Group_222" data-name="Group 222" transform="translate(0)">
        <path id="Path_194" data-name="Path 194" d="M131.568,209.328a5.321,5.321,0,0,0-.472-.282l-10.715-5.77L60.957,234.739a5.392,5.392,0,0,1-5.048,0L-3.514,203.276l-10.716,5.77a5.339,5.339,0,0,0-2.213,7.219,5.253,5.253,0,0,0,.282.472L58.434,256.23l74.594-39.493A5.339,5.339,0,0,0,131.568,209.328Z" transform="translate(17.067 -203.276)" fill="#f7444e"/>
      </g>
    </g>
    <g id="Group_225" data-name="Group 225" transform="translate(-17.062 80.275)">
      <g id="Group_224" data-name="Group 224" transform="translate(0)">
        <path id="Path_195" data-name="Path 195" d="M133.292,320.949a5.394,5.394,0,0,0-2.184-2.184l-10.715-5.77L60.969,344.457a5.392,5.392,0,0,1-5.048,0L-3.5,312.994l-10.716,5.77a5.393,5.393,0,0,0-2.184,7.308,5.394,5.394,0,0,0,2.184,2.184l70.107,37.751a5.393,5.393,0,0,0,5.112,0l70.107-37.751A5.393,5.393,0,0,0,133.292,320.949Z" transform="translate(17.051 -312.994)" fill="#f7444e"/>
      </g>
    </g>
    <g id="Group_227" data-name="Group 227" transform="translate(-17.067 -17.067)">
      <g id="Group_226" data-name="Group 226" transform="translate(0)">
        <path id="Path_196" data-name="Path 196" d="M131.568,21.611a5.4,5.4,0,0,0-.472-.282L60.99-16.422a5.393,5.393,0,0,0-5.112,0L-14.23,21.329a5.339,5.339,0,0,0-2.213,7.219,5.3,5.3,0,0,0,.282.472L58.434,68.513,133.027,29.02A5.339,5.339,0,0,0,131.568,21.611Z" transform="translate(17.067 17.067)" fill="#f7444e"/>
      </g>
    </g>
  </g>
</svg>
