<svg id="Group_221" data-name="Group 221" xmlns="http://www.w3.org/2000/svg" width="151" height="151" viewBox="0 0 151 151">
  <g id="Group_218" data-name="Group 218" transform="translate(45.3 45.3)">
    <g id="Group_217" data-name="Group 217">
      <rect id="Rectangle_71" data-name="Rectangle 71" width="60.4" height="60.4" fill="#f7444e"/>
    </g>
  </g>
  <g id="Group_220" data-name="Group 220">
    <g id="Group_219" data-name="Group 219">
      <path id="Path_193" data-name="Path 193" d="M143.45,83.05A7.133,7.133,0,0,0,151,75.5a7.566,7.566,0,0,0-7.55-7.55H135.9V52.85h7.55A7.133,7.133,0,0,0,151,45.3a7.566,7.566,0,0,0-7.55-7.55H135.9V30.2a15.144,15.144,0,0,0-15.1-15.1h-7.55V7.55a7.55,7.55,0,0,0-15.1,0V15.1H83.05V7.55A7.566,7.566,0,0,0,75.5,0a7.133,7.133,0,0,0-7.55,7.55V15.1H52.85V7.55A7.566,7.566,0,0,0,45.3,0a7.133,7.133,0,0,0-7.55,7.55V15.1H30.2A15.144,15.144,0,0,0,15.1,30.2v7.55H7.55A7.133,7.133,0,0,0,0,45.3a7.566,7.566,0,0,0,7.55,7.55H15.1v15.1H7.55A7.133,7.133,0,0,0,0,75.5a7.566,7.566,0,0,0,7.55,7.55H15.1v15.1H7.55A7.133,7.133,0,0,0,0,105.7a7.566,7.566,0,0,0,7.55,7.55H15.1v7.55a15.144,15.144,0,0,0,15.1,15.1h7.55v7.55A7.566,7.566,0,0,0,45.3,151a7.133,7.133,0,0,0,7.55-7.55V135.9h15.1v7.55A7.566,7.566,0,0,0,75.5,151a7.133,7.133,0,0,0,7.55-7.55V135.9h15.1v7.55a7.55,7.55,0,1,0,15.1,0V135.9h7.55a15.144,15.144,0,0,0,15.1-15.1v-7.55h7.55A7.133,7.133,0,0,0,151,105.7a7.566,7.566,0,0,0-7.55-7.55H135.9V83.05ZM120.8,120.8H30.2V30.2h90.6Z" fill="#f7444e"/>
    </g>
  </g>
</svg>
