<svg id="Group_216" data-name="Group 216" xmlns="http://www.w3.org/2000/svg" width="151" height="151" viewBox="0 0 151 151">
  <g id="Group_215" data-name="Group 215" transform="translate(40.894 62.923)">
    <path id="Path_189" data-name="Path 189" d="M314.052,276.781a4.722,4.722,0,0,1-3.58-7.8l6.8-7.934-6.808-7.94a4.721,4.721,0,0,1,7.166-6.147l9.438,11.011a4.722,4.722,0,0,1,0,6.147l-9.438,11.011a4.7,4.7,0,0,1-3.58,1.648Z" transform="translate(-258.995 -235.891)" fill="#f7444e"/>
    <path id="Path_190" data-name="Path 190" d="M152.822,276.775a4.723,4.723,0,0,1-3.586-1.648L139.8,264.116a4.722,4.722,0,0,1,0-6.147l9.437-11.011a4.721,4.721,0,0,1,7.166,6.147l-6.8,7.94,6.807,7.94a4.715,4.715,0,0,1-3.586,7.789Z" transform="translate(-138.661 -235.885)" fill="#f7444e"/>
    <path id="Path_191" data-name="Path 191" d="M227.673,263.562a4.724,4.724,0,0,1-3.542-5.656l9.438-40.9a4.719,4.719,0,0,1,9.2,2.114l-9.437,40.9A4.717,4.717,0,0,1,227.673,263.562Z" transform="translate(-198.839 -213.354)" fill="#f7444e"/>
  </g>
  <path id="Path_192" data-name="Path 192" d="M132.125,0H18.875C8.494,0,0,9.266,0,20.591V130.409C0,141.734,8.494,151,18.875,151h113.25C142.506,151,151,141.734,151,130.409V20.591C151,9.266,142.506,0,132.125,0Zm6.292,130.409c0,3.775-2.831,6.864-6.292,6.864H18.875c-3.46,0-6.292-3.089-6.292-6.864V34.318H138.417Z" fill="#f7444e"/>
</svg>
