<svg xmlns="http://www.w3.org/2000/svg" xmlns:xlink="http://www.w3.org/1999/xlink" width="685.287" height="626.887" viewBox="0 0 685.287 626.887">
  <defs>
    <clipPath id="clip-path">
      <path id="Path_148" data-name="Path 148" d="M253.866,332.748h-6.335a5.978,5.978,0,0,0-5.445,4.215L191.521,475.785H309.878L259.313,336.963A5.981,5.981,0,0,0,253.866,332.748Z" transform="translate(-191.521 -332.748)" fill="none"/>
    </clipPath>
    <clipPath id="clip-path-2">
      <path id="Path_153" data-name="Path 153" d="M521.7,332.748h-6.335a5.981,5.981,0,0,0-5.447,4.215L459.355,475.785H577.711L527.147,336.963A5.978,5.978,0,0,0,521.7,332.748Z" transform="translate(-459.355 -332.748)" fill="none"/>
    </clipPath>
    <clipPath id="clip-path-3">
      <rect id="Rectangle_64" data-name="Rectangle 64" width="366.653" height="79.477" rx="5.471" fill="none"/>
    </clipPath>
    <clipPath id="clip-path-5">
      <ellipse id="Ellipse_59" data-name="Ellipse 59" cx="121.239" cy="32.439" rx="121.239" ry="32.439" fill="none"/>
    </clipPath>
  </defs>
  <g id="Group_257" data-name="Group 257" transform="translate(-213 -1221.915)">
    <g id="Group_157" data-name="Group 157" transform="translate(213 1550.664)">
      <g id="Group_152" data-name="Group 152" transform="translate(0 144.952)" style="mix-blend-mode: multiply;isolation: isolate">
        <path id="Path_146" data-name="Path 146" d="M333.915,420.3c.231,5.95-33.593,11.99-75.556,11.97-41.965.019-75.785-6.024-75.556-11.97.231-5.989,34.049-9.642,75.556-9.66C299.867,410.658,333.686,414.306,333.915,420.3Z" transform="translate(-182.802 -410.638)" fill="#78bcc4"/>
      </g>
      <g id="Group_156" data-name="Group 156" transform="translate(1.077)">
        <g id="Group_155" data-name="Group 155" transform="translate(15.148)">
          <path id="Path_147" data-name="Path 147" d="M253.866,332.748h-6.335a5.978,5.978,0,0,0-5.445,4.215L191.521,475.785a211.092,211.092,0,0,0,118.357,0q-25.282-69.41-50.565-138.822A5.981,5.981,0,0,0,253.866,332.748Z" transform="translate(-191.521 -332.748)" fill="#f7444e"/>
          <g id="Group_154" data-name="Group 154">
            <g id="Group_153" data-name="Group 153" clip-path="url(#clip-path)">
              <rect id="Rectangle_55" data-name="Rectangle 55" width="108.147" height="28.671" transform="translate(4.154 34.724)" fill="#fff"/>
              <rect id="Rectangle_56" data-name="Rectangle 56" width="108.147" height="28.671" transform="translate(4.154 90.792)" fill="#fff"/>
            </g>
          </g>
        </g>
        <path id="Path_149" data-name="Path 149" d="M242.247,424.325a154.694,154.694,0,0,1-7,24.5c-2.687,7.258-5.8,14.653-10.742,20.7a137.849,137.849,0,0,1-11.994,11.6l79.285-5.335L241.237,336.963a5.981,5.981,0,0,0-5.447-4.215h-.726C244.4,362.252,248.137,393.736,242.247,424.325Z" transform="translate(-158.297 -332.748)" fill="#78bcc4" style="mix-blend-mode: multiply;isolation: isolate"/>
        <path id="Path_150" data-name="Path 150" d="M327.679,421.378a371.119,371.119,0,0,1-139.946,0,5.21,5.21,0,0,1-4.247-6.1q.313-1.507.625-3.019a5.247,5.247,0,0,1,6.145-4.023,357.747,357.747,0,0,0,134.9,0,5.246,5.246,0,0,1,6.143,4.023c.208,1,.417,2.014.625,3.019A5.2,5.2,0,0,1,327.679,421.378Z" transform="translate(-183.381 -267.834)" fill="#f7444e"/>
      </g>
    </g>
    <g id="Group_163" data-name="Group 163" transform="translate(711.434 1550.664)">
      <g id="Group_158" data-name="Group 158" transform="translate(0 144.952)">
        <path id="Path_151" data-name="Path 151" d="M601.751,420.3c.231,5.95-33.593,11.99-75.558,11.97-41.965.019-75.785-6.024-75.556-11.97.231-5.989,34.05-9.642,75.558-9.66C567.7,410.658,601.522,414.306,601.751,420.3Z" transform="translate(-450.636 -410.638)" fill="#78bcc4"/>
      </g>
      <g id="Group_162" data-name="Group 162" transform="translate(1.077)">
        <g id="Group_161" data-name="Group 161" transform="translate(15.148)">
          <path id="Path_152" data-name="Path 152" d="M521.7,332.748h-6.333a5.981,5.981,0,0,0-5.447,4.215L459.355,475.785a211.094,211.094,0,0,0,118.357,0q-25.282-69.41-50.565-138.822A5.979,5.979,0,0,0,521.7,332.748Z" transform="translate(-459.355 -332.748)" fill="#f7444e"/>
          <g id="Group_160" data-name="Group 160">
            <g id="Group_159" data-name="Group 159" clip-path="url(#clip-path-2)">
              <rect id="Rectangle_57" data-name="Rectangle 57" width="108.147" height="28.671" transform="translate(4.154 34.724)" fill="#fff"/>
              <rect id="Rectangle_58" data-name="Rectangle 58" width="108.147" height="28.671" transform="translate(4.154 90.792)" fill="#fff"/>
            </g>
          </g>
        </g>
        <path id="Path_154" data-name="Path 154" d="M510.08,424.325a154.688,154.688,0,0,1-7,24.5c-2.687,7.258-5.8,14.653-10.74,20.7a138.377,138.377,0,0,1-11.994,11.6l79.283-5.335L509.07,336.963a5.978,5.978,0,0,0-5.445-4.215H502.9C512.23,362.252,515.97,393.736,510.08,424.325Z" transform="translate(-426.13 -332.748)" fill="#78bcc4" style="mix-blend-mode: multiply;isolation: isolate"/>
        <path id="Path_155" data-name="Path 155" d="M595.515,421.378a371.129,371.129,0,0,1-139.948,0,5.21,5.21,0,0,1-4.247-6.1q.316-1.507.625-3.019a5.248,5.248,0,0,1,6.145-4.023,357.746,357.746,0,0,0,134.9,0,5.249,5.249,0,0,1,6.145,4.023c.208,1,.417,2.014.625,3.019A5.205,5.205,0,0,1,595.515,421.378Z" transform="translate(-451.215 -267.834)" fill="#f7444e"/>
      </g>
    </g>
    <g id="Group_253" data-name="Group 253" transform="translate(-0.023)">
      <g id="Group_167" data-name="Group 167" transform="translate(363.48 1328.319)">
        <g id="Group_164" data-name="Group 164" transform="translate(16.823)">
          <path id="Rectangle_59" data-name="Rectangle 59" d="M4.128,0h19.3a4.128,4.128,0,0,1,4.128,4.128V310.754a0,0,0,0,1,0,0H0a0,0,0,0,1,0,0V4.128A4.128,4.128,0,0,1,4.128,0Z" fill="#022c3e"/>
        </g>
        <g id="Group_166" data-name="Group 166" transform="translate(0.001)">
          <path id="Rectangle_60" data-name="Rectangle 60" d="M4.128,0h19.3a4.128,4.128,0,0,1,4.128,4.128V310.754a0,0,0,0,1,0,0H0a0,0,0,0,1,0,0V4.128A4.128,4.128,0,0,1,4.128,0Z" transform="translate(305.646)" fill="#022c3e"/>
          <g id="Group_165" data-name="Group 165" transform="translate(0 299.628)">
            <path id="Rectangle_61" data-name="Rectangle 61" d="M3.06,0H58.137A3.06,3.06,0,0,1,61.2,3.06V16.808a3.061,3.061,0,0,1-3.061,3.061H3.061A3.061,3.061,0,0,1,0,16.809V3.06A3.06,3.06,0,0,1,3.06,0Z" fill="#022c3e"/>
            <path id="Rectangle_62" data-name="Rectangle 62" d="M3.06,0H58.136A3.061,3.061,0,0,1,61.2,3.061V16.808a3.061,3.061,0,0,1-3.061,3.061H3.061A3.061,3.061,0,0,1,0,16.808V3.06A3.06,3.06,0,0,1,3.06,0Z" transform="translate(288.824)" fill="#022c3e"/>
          </g>
        </g>
        <path id="Path_156" data-name="Path 156" d="M296.435,385.582c-10.269-.1-27.937,1.373-32.335-9.417a5.665,5.665,0,0,0-.437,2.179v8.479a5.7,5.7,0,0,0,5.7,5.7h49.805a5.7,5.7,0,0,0,5.7-5.7v-8.479a5.672,5.672,0,0,0-.428-2.151C320.708,385.267,305.423,385.671,296.435,385.582Z" transform="translate(-263.663 -73.022)" fill="#666" opacity="0.7" style="mix-blend-mode: multiply;isolation: isolate"/>
        <path id="Path_157" data-name="Path 157" d="M451.635,385.582c-10.269-.1-27.937,1.373-32.335-9.417a5.665,5.665,0,0,0-.437,2.179v8.479a5.7,5.7,0,0,0,5.7,5.7h49.805a5.7,5.7,0,0,0,5.695-5.7v-8.479a5.673,5.673,0,0,0-.426-2.151C475.906,385.267,460.623,385.671,451.635,385.582Z" transform="translate(-130.039 -73.022)" fill="#666" opacity="0.7" style="mix-blend-mode: multiply;isolation: isolate"/>
      </g>
      <g id="Group_176" data-name="Group 176" transform="translate(352.023 1358.256)">
        <g id="Group_175" data-name="Group 175" clip-path="url(#clip-path-3)">
          <rect id="Rectangle_63" data-name="Rectangle 63" width="366.653" height="79.477" fill="#fff"/>
          <g id="Group_174" data-name="Group 174" transform="translate(-3.444 -1.855)">
            <g id="Group_168" data-name="Group 168">
              <path id="Path_158" data-name="Path 158" d="M283.3,228.36l-27.645,27.645v37l64.35-64.35-.3-.3Z" transform="translate(-255.656 -228.36)" fill="#f7444e"/>
            </g>
            <g id="Group_169" data-name="Group 169" transform="translate(18.039)">
              <path id="Path_159" data-name="Path 159" d="M302.349,311.546l82.89-82.89-.3-.3H348.535l-83.186,83.186Z" transform="translate(-265.349 -228.36)" fill="#f7444e"/>
            </g>
            <g id="Group_170" data-name="Group 170" transform="translate(91.618)">
              <path id="Path_160" data-name="Path 160" d="M341.887,311.546l82.89-82.89-.3-.3H388.073l-83.186,83.186Z" transform="translate(-304.887 -228.36)" fill="#f7444e"/>
            </g>
            <g id="Group_171" data-name="Group 171" transform="translate(165.197)">
              <path id="Path_161" data-name="Path 161" d="M381.425,311.546l82.89-82.89-.3-.3H427.611l-83.186,83.186Z" transform="translate(-344.425 -228.36)" fill="#f7444e"/>
            </g>
            <g id="Group_172" data-name="Group 172" transform="translate(238.777)">
              <path id="Path_162" data-name="Path 162" d="M420.963,311.546l82.89-82.89-.3-.3H467.149l-83.186,83.186Z" transform="translate(-383.963 -228.36)" fill="#f7444e"/>
            </g>
            <g id="Group_173" data-name="Group 173" transform="translate(312.356 22.001)">
              <path id="Path_163" data-name="Path 163" d="M423.5,301.368h37l24.185-24.185v-37Z" transform="translate(-423.5 -240.182)" fill="#f7444e"/>
            </g>
          </g>
        </g>
      </g>
      <path id="Path_164" data-name="Path 164" d="M616.708,229.575l-.233,37.774c0,18.265-.843,34.8-33.071,33.071H260a10.157,10.157,0,0,1-2.419-.3,10.175,10.175,0,0,0,10.036,8.527H613.909a10.183,10.183,0,0,0,10.183-10.181V239.351A10.17,10.17,0,0,0,616.708,229.575Z" transform="translate(94.584 1129.086)" fill="#78bcc4" style="mix-blend-mode: multiply;isolation: isolate"/>
      <g id="Group_186" data-name="Group 186" transform="translate(352.023 1508.152)">
        <g id="Group_185" data-name="Group 185">
          <g id="Group_184" data-name="Group 184" clip-path="url(#clip-path-3)">
            <rect id="Rectangle_65" data-name="Rectangle 65" width="366.653" height="79.477" fill="#fff"/>
            <g id="Group_183" data-name="Group 183" transform="translate(-3.444 -1.855)">
              <g id="Group_177" data-name="Group 177">
                <path id="Path_165" data-name="Path 165" d="M283.3,308.907l-27.645,27.645v37l64.35-64.35-.3-.3Z" transform="translate(-255.656 -308.907)" fill="#f7444e"/>
              </g>
              <g id="Group_178" data-name="Group 178" transform="translate(18.039)">
                <path id="Path_166" data-name="Path 166" d="M302.349,392.093l82.89-82.89-.3-.3H348.535l-83.186,83.186Z" transform="translate(-265.349 -308.907)" fill="#f7444e"/>
              </g>
              <g id="Group_179" data-name="Group 179" transform="translate(91.618)">
                <path id="Path_167" data-name="Path 167" d="M341.887,392.093l82.89-82.89-.3-.3H388.073l-83.186,83.186Z" transform="translate(-304.887 -308.907)" fill="#f7444e"/>
              </g>
              <g id="Group_180" data-name="Group 180" transform="translate(165.197)">
                <path id="Path_168" data-name="Path 168" d="M381.425,392.093l82.89-82.89-.3-.3H427.611l-83.186,83.186Z" transform="translate(-344.425 -308.907)" fill="#f7444e"/>
              </g>
              <g id="Group_181" data-name="Group 181" transform="translate(238.777)">
                <path id="Path_169" data-name="Path 169" d="M420.963,392.093l82.89-82.89-.3-.3H467.149l-83.186,83.186Z" transform="translate(-383.963 -308.907)" fill="#f7444e"/>
              </g>
              <g id="Group_182" data-name="Group 182" transform="translate(312.356 22.001)">
                <path id="Path_170" data-name="Path 170" d="M423.5,381.915h37l24.185-24.185v-37Z" transform="translate(-423.5 -320.729)" fill="#f7444e"/>
              </g>
            </g>
          </g>
        </g>
        <path id="Path_171" data-name="Path 171" d="M616.708,310.121l-.233,37.776c0,18.264-.843,34.8-33.071,33.07H260a10.155,10.155,0,0,1-2.419-.3,10.177,10.177,0,0,0,10.036,8.527H613.909a10.184,10.184,0,0,0,10.183-10.183V319.9A10.173,10.173,0,0,0,616.708,310.121Z" transform="translate(-257.439 -309.717)" fill="#78bcc4" style="mix-blend-mode: multiply;isolation: isolate"/>
      </g>
      <g id="Group_188" data-name="Group 188" transform="translate(437.328 1299.973)">
        <rect id="Rectangle_67" data-name="Rectangle 67" width="138.623" height="138.623" rx="3.201" transform="translate(98.021 0) rotate(45)" fill="#022c3e"/>
        <g id="Group_187" data-name="Group 187" transform="translate(15.176 15.18)">
          <path id="Path_172" data-name="Path 172" d="M394.345,371.878a7.667,7.667,0,0,1-5.438-2.248L313.75,294.472a7.692,7.692,0,0,1,0-10.872l75.158-75.156a7.7,7.7,0,0,1,10.876,0L474.941,283.6a7.687,7.687,0,0,1,0,10.872L399.783,369.63A7.661,7.661,0,0,1,394.345,371.878ZM316.149,286a4.3,4.3,0,0,0,0,6.074l75.16,75.158a4.3,4.3,0,0,0,6.076,0l75.158-75.158a4.291,4.291,0,0,0,0-6.074l-75.158-75.156a4.3,4.3,0,0,0-6.076,0Z" transform="translate(-311.5 -206.195)" fill="#fff"/>
        </g>
        <path id="Path_173" data-name="Path 173" d="M392.894,272.429c-1.371,0-2.4.342-3.428.342l-9.94-9.939,8.226-8.227,10.626-3.77,7.883-12.683a2.148,2.148,0,0,0,0-2.056l-4.113-4.113a2.112,2.112,0,0,0-2.4-.342l-13.025,7.541-4.113,10.969h0l-8.227,8.226-9.255-9.94c0-1.029.342-2.056.342-3.428a13.923,13.923,0,0,0-17.138-13.367l5.142,5.14a6.787,6.787,0,0,1-9.6,9.6l-5.484-4.8a13.458,13.458,0,0,0,16.8,16.453l9.94,9.939-4.113,4.115A6.525,6.525,0,0,0,354.5,273.8L340.45,287.852a6.979,6.979,0,0,0-.685,9.6,6.756,6.756,0,0,0,9.941.342L364.1,283.4a6.724,6.724,0,0,0,1.714-6.513l4.115-4.113,9.939,9.941a11.661,11.661,0,0,0-.342,3.426,13.924,13.924,0,0,0,17.138,13.369l-5.142-5.142a6.787,6.787,0,1,1,9.6-9.6l5.14,5.14A13.91,13.91,0,0,0,392.894,272.429Z" transform="translate(-273.589 -169.437)" fill="#fff"/>
      </g>
      <g id="Group_189" data-name="Group 189" transform="translate(461.967 1395.566)">
        <path id="Path_174" data-name="Path 174" d="M316.585,252.374a2.967,2.967,0,1,1,2.966,2.968A2.968,2.968,0,0,1,316.585,252.374Z" transform="translate(-316.585 -249.406)" fill="#fff"/>
        <path id="Path_175" data-name="Path 175" d="M390.395,252.374a2.967,2.967,0,1,1,2.968,2.968A2.968,2.968,0,0,1,390.395,252.374Z" transform="translate(-253.036 -249.406)" fill="#fff"/>
      </g>
      <g id="Group_193" data-name="Group 193" transform="translate(365.307 1272.198)">
        <g id="Group_192" data-name="Group 192">
          <g id="Group_190" data-name="Group 190">
            <circle id="Ellipse_49" data-name="Ellipse 49" cx="29.676" cy="29.676" r="29.676" fill="#f7444e"/>
            <circle id="Ellipse_50" data-name="Ellipse 50" cx="20.349" cy="20.349" r="20.349" transform="translate(9.327 9.327)" fill="#fff"/>
            <circle id="Ellipse_51" data-name="Ellipse 51" cx="10.175" cy="10.175" r="10.175" transform="translate(19.502 19.502)" fill="#022c3e"/>
          </g>
          <g id="Group_191" data-name="Group 191" transform="translate(287.154)">
            <circle id="Ellipse_52" data-name="Ellipse 52" cx="29.676" cy="29.676" r="29.676" fill="#f7444e"/>
            <circle id="Ellipse_53" data-name="Ellipse 53" cx="20.349" cy="20.349" r="20.349" transform="translate(9.327 9.327)" fill="#fff"/>
            <circle id="Ellipse_54" data-name="Ellipse 54" cx="10.175" cy="10.175" r="10.175" transform="translate(19.502 19.502)" fill="#022c3e"/>
          </g>
        </g>
      </g>
    </g>
    <g id="Group_202" data-name="Group 202" transform="translate(370.996 1662.781)">
      <g id="Group_195" data-name="Group 195" transform="translate(36.915 60.324)">
        <ellipse id="Ellipse_55" data-name="Ellipse 55" cx="135.729" cy="41.13" rx="135.729" ry="41.13" fill="#022c3e"/>
        <g id="Group_194" data-name="Group 194" transform="translate(17.228 40.102)" opacity="0.7" style="mix-blend-mode: multiply;isolation: isolate">
          <ellipse id="Ellipse_56" data-name="Ellipse 56" cx="118.501" cy="21.079" rx="118.501" ry="21.079" fill="#666"/>
        </g>
      </g>
      <g id="Group_196" data-name="Group 196" transform="translate(111.634)">
        <rect id="Rectangle_68" data-name="Rectangle 68" width="10.282" height="103.683" transform="translate(3.085 86.374) rotate(-90)" fill="#fff"/>
        <rect id="Rectangle_69" data-name="Rectangle 69" width="10.282" height="103.683" transform="translate(3.085 42.951) rotate(-90)" fill="#fff"/>
        <rect id="Rectangle_70" data-name="Rectangle 70" width="10.282" height="103.683" transform="translate(3.085 129.218) rotate(-90)" fill="#fff"/>
        <path id="Path_176" data-name="Path 176" d="M337.972,532.616l-10.284-1.4V396.85a3.857,3.857,0,0,1,3.856-3.856h2.572a3.857,3.857,0,0,1,3.856,3.856Z" transform="translate(-327.688 -392.994)" fill="#fff"/>
        <path id="Path_177" data-name="Path 177" d="M392.487,532.849l-10.282.931V396.85a3.856,3.856,0,0,1,3.856-3.856h2.57a3.857,3.857,0,0,1,3.856,3.856Z" transform="translate(-280.75 -392.994)" fill="#fff"/>
      </g>
      <g id="Group_201" data-name="Group 201" transform="translate(0 13.537)">
        <g id="Group_197" data-name="Group 197" transform="translate(39.223)">
          <path id="Path_178" data-name="Path 178" d="M333.44,474.448c7.234,11.22,6.35,27.729-2.416,44.189,1.225.316,2.363.657,3.584.992,9.057-17.441,9.83-34.988,1.961-47.2-5.058-7.848-13.148-12.954-20.971-17.893-8.864-5.594-17.235-10.879-21.178-19.71-4.874-10.92.106-25.434,10.658-31.058a1.862,1.862,0,1,0-1.753-3.286c-12.394,6.61-18.029,23.031-12.3,35.861,4.4,9.861,13.648,15.7,22.59,21.342C321.092,462.41,328.83,467.293,333.44,474.448Z" transform="translate(-288.778 -400.268)" fill="#f7444e"/>
        </g>
        <g id="Group_198" data-name="Group 198" transform="translate(0 39.985)">
          <path id="Path_179" data-name="Path 179" d="M331.882,494.475c1.178.378,2.36.863,3.525,1.282a3.1,3.1,0,0,0,.082-.326c2.536-11.532-2.263-24.342-11.672-31.149-6.833-4.943-15.184-6.612-23.262-8.224l-2.1-.422c-8.451-1.71-17.028-4.109-22.546-10a17.143,17.143,0,0,1-4.444-12.683,10.781,10.781,0,0,1,3.938-7.866,1.862,1.862,0,0,0-2.287-2.939,14.484,14.484,0,0,0-5.36,10.513,20.973,20.973,0,0,0,5.438,15.521c6.231,6.653,15.468,9.268,24.52,11.1l2.11.424c7.686,1.533,15.634,3.121,21.809,7.589C329.837,473.232,334.032,484.387,331.882,494.475Z" transform="translate(-267.701 -421.755)" fill="#78bcc4"/>
        </g>
        <g id="Group_199" data-name="Group 199" transform="translate(81.469 106.98)" style="mix-blend-mode: multiply;isolation: isolate">
          <path id="Path_180" data-name="Path 180" d="M316.284,457.754a67.145,67.145,0,0,1-4.805,11.389c1.225.318,2.363.657,3.584.992a72.727,72.727,0,0,0,3.724-8.458C317.981,460.352,317.135,459.051,316.284,457.754Z" transform="translate(-311.479 -457.754)" fill="#979797"/>
        </g>
        <g id="Group_200" data-name="Group 200" transform="translate(64.181 102.703)" style="mix-blend-mode: multiply;isolation: isolate">
          <path id="Path_181" data-name="Path 181" d="M302.336,455.456a26.482,26.482,0,0,1-.147,10c1.178.378,2.362.863,3.525,1.282a3.1,3.1,0,0,0,.082-.326,29.544,29.544,0,0,0,.588-8.376C305.025,457.19,303.672,456.334,302.336,455.456Z" transform="translate(-302.189 -455.456)" fill="#979797"/>
        </g>
      </g>
    </g>
    <g id="Group_213" data-name="Group 213" transform="translate(618.223 1743.996)">
      <ellipse id="Ellipse_57" data-name="Ellipse 57" cx="139.347" cy="42.12" rx="139.347" ry="42.12" transform="translate(1.37 20.565)" fill="#78bcc4"/>
      <g id="Group_210" data-name="Group 210" transform="translate(0)">
        <g id="Group_203" data-name="Group 203">
          <path id="Path_182" data-name="Path 182" d="M672.007,482.922c0,22.717-60.768,41.131-135.729,41.131s-135.729-18.414-135.729-41.131c0-4,.069-11.5,3.579-15.156,16.436-17.11,70.382-25.974,132.15-25.974,60.432,0,117.387,11.261,134.968,27.8C675.472,473.57,672.007,478.52,672.007,482.922Z" transform="translate(-400.549 -432.195)" fill="#636363"/>
          <ellipse id="Ellipse_58" data-name="Ellipse 58" cx="135.729" cy="41.13" rx="135.729" ry="41.13" transform="translate(1.37)" fill="#dcdcdc"/>
        </g>
        <g id="Group_209" data-name="Group 209" transform="translate(14.395 5.826)">
          <g id="Group_207" data-name="Group 207" transform="translate(2.15 1.836)">
            <g id="Group_206" data-name="Group 206" clip-path="url(#clip-path-5)">
              <g id="Group_205" data-name="Group 205" transform="translate(-50.453 -40.337)">
                <path id="Path_183" data-name="Path 183" d="M656.116,494.366l-7.167,2.905L463.2,421.983l7.167-2.905Z" transform="translate(-312.696 -419.078)" fill="#818181"/>
                <g id="Group_204" data-name="Group 204" transform="translate(0 5.568)">
                  <path id="Path_184" data-name="Path 184" d="M639.838,454.851l7.167,2.905L476.789,526.749l-7.167-2.905Z" transform="translate(-307.169 -393.846)" fill="#818181"/>
                  <path id="Path_185" data-name="Path 185" d="M693.5,502.734l7.167-2.905-34.043-13.8,30.459-12.346-7.167-2.9-30.461,12.346-17.918-7.262L672,463.517l-7.167-2.9-30.461,12.346-17.918-7.263,30.461-12.346-7.168-2.9L609.284,462.79l-17.918-7.262,30.459-12.346-7.167-2.9L584.2,452.623l-17.918-7.263,30.459-12.346-7.167-2.9-30.461,12.346-44.195-17.914-7.168,2.905,44.2,17.914-17.918,7.263-44.2-17.914-7.167,2.9,44.2,17.914-17.918,7.262-44.2-17.914-7.167,2.9,44.2,17.914-17.918,7.263-44.2-17.914-7.167,2.9,44.2,17.914-17.918,7.262-44.2-17.914-7.167,2.9,44.2,17.914-17.918,7.263-44.2-17.914-7.168,2.905,44.2,17.914-7.167,2.905,7.167,2.905,7.168-2.905,17.918,7.262-7.169,2.905,7.167,2.907,7.168-2.907,17.918,7.263-7.169,2.9,7.169,2.905,7.167-2.905,17.918,7.262-7.167,2.907,7.167,2.9,7.167-2.9,17.918,7.263-7.167,2.9,7.167,2.9,7.167-2.9,34.045,13.8,7.167-2.9-34.043-13.8,17.916-7.263,34.045,13.8,7.167-2.9-34.043-13.8,17.918-7.262,34.043,13.8,7.167-2.9-34.043-13.8,17.918-7.263,34.043,13.8,7.168-2.9-34.045-13.8,17.918-7.262,34.045,13.8,7.167-2.9-34.045-13.8,17.918-7.263Zm-66.3-26.871-17.917,7.262-17.918-7.262,17.918-7.263ZM551.947,486.03l-17.918,7.263-17.917-7.263,17.917-7.262ZM541.2,475.863l17.917-7.263,17.916,7.263-17.916,7.262ZM526.863,496.2l-17.918,7.263L491.028,496.2l17.917-7.263Zm7.167,2.905,17.918,7.262-17.918,7.263-17.917-7.263ZM541.2,496.2l17.917-7.263,17.916,7.263-17.917,7.263Zm25.084-10.168,17.918-7.262,17.918,7.262L584.2,493.293Zm35.835-20.335L584.2,472.958l-17.918-7.263,17.918-7.262Zm-43-17.43,17.917,7.263-17.916,7.262L541.2,455.528ZM534.03,458.433l17.918,7.262-17.918,7.263-17.917-7.263ZM508.945,468.6l17.918,7.263-17.918,7.262-17.917-7.262Zm-25.084,10.168,17.918,7.262-17.918,7.263-17.918-7.263Zm-43,17.43,17.918-7.263,17.918,7.263-17.918,7.263Zm25.084,10.167,17.918-7.262,17.918,7.262-17.918,7.263Zm25.084,10.168,17.917-7.263,17.918,7.263-17.918,7.261Zm43,17.43L516.112,526.7l17.917-7.262,17.918,7.262Zm25.084-10.168L541.2,516.533l17.916-7.263,17.917,7.263ZM584.2,513.628l-17.918-7.263L584.2,499.1l17.918,7.262Zm25.084-10.168L591.366,496.2l17.918-7.263L627.2,496.2Zm25.084-10.167-17.918-7.263,17.918-7.262,17.918,7.262Z" transform="translate(-382.328 -419.942)" fill="#022c3e"/>
                  <path id="Path_186" data-name="Path 186" d="M558.963,422.07l7.167,2.905L395.914,493.968l-7.167-2.905Z" transform="translate(-376.802 -422.07)" fill="#818181"/>
                </g>
              </g>
            </g>
          </g>
          <g id="Group_208" data-name="Group 208">
            <path id="Path_187" data-name="Path 187" d="M531.846,508.317c-69.288,0-123.562-15.055-123.562-34.277s54.274-34.274,123.562-34.274,123.562,15.055,123.562,34.274S601.134,508.317,531.846,508.317Zm0-64.878c-71.424,0-119.4,15.822-119.4,30.6s47.978,30.6,119.4,30.6,119.4-15.824,119.4-30.6S603.27,443.44,531.846,443.44Z" transform="translate(-408.284 -439.766)" fill="#fff"/>
          </g>
        </g>
      </g>
      <g id="Group_212" data-name="Group 212" transform="translate(8.056 12.894)" style="mix-blend-mode: multiply;isolation: isolate">
        <g id="Group_211" data-name="Group 211">
          <path id="Path_188" data-name="Path 188" d="M632.664,443.564c4.292,4,6.638,8.274,6.638,12.712,0,22.713-60.768,41.13-135.729,41.13-38.9,0-73.948-4.967-98.7-12.911,17.674,16.492,68.773,28.419,129.091,28.419,74.962,0,135.729-18.414,135.729-41.13C669.7,460.856,655.608,450.93,632.664,443.564Z" transform="translate(-404.878 -443.564)" fill="#cbd5df"/>
        </g>
      </g>
    </g>
    <path id="Path_240" data-name="Path 240" d="M14.035,41.49c6.93,0,10.43-3.955,10.43-12.74V14.925h-6.02v14.49c0,4.935-1.575,6.685-4.41,6.685-2.87,0-4.34-1.75-4.34-6.685V14.925H3.465V28.75C3.465,37.535,7.07,41.49,14.035,41.49ZM29.82,41h6.23V27.7c1.19-1.155,2.03-1.785,3.43-1.785,1.575,0,2.31.77,2.31,3.535V41h6.23V28.68c0-4.97-1.855-8.085-6.2-8.085a9.008,9.008,0,0,0-6.37,2.975h-.1L34.9,21.085H29.82Zm30.17.49a7.732,7.732,0,0,0,5.215-2.415h.14L65.8,41h5.075V13.035h-6.23v6.65l.21,2.975a6.26,6.26,0,0,0-4.8-2.065c-4.13,0-8.225,3.92-8.225,10.43S55.02,41.49,59.99,41.49Zm1.645-5.11c-2.135,0-3.4-1.61-3.4-5.425,0-3.675,1.575-5.285,3.29-5.285a4.487,4.487,0,0,1,3.115,1.19V34.7A3.309,3.309,0,0,1,61.635,36.38ZM84.91,41.49a12.851,12.851,0,0,0,7.1-2.275L89.95,35.47a8.1,8.1,0,0,1-4.2,1.26c-2.52,0-4.41-1.12-4.97-3.85H92.47a11.672,11.672,0,0,0,.28-2.7c0-5.425-2.8-9.59-8.54-9.59-4.795,0-9.45,3.99-9.45,10.43C74.76,37.64,79.17,41.49,84.91,41.49ZM80.675,28.785c.42-2.345,1.925-3.43,3.64-3.43,2.275,0,3.15,1.47,3.15,3.43ZM96.74,41h6.23V29.625c1.015-2.625,2.8-3.57,4.27-3.57a8.591,8.591,0,0,1,2.2.315l1.015-5.355a5.624,5.624,0,0,0-2.415-.42c-1.995,0-4.2,1.3-5.67,3.955h-.1l-.455-3.465H96.74Zm35.77.49a10.837,10.837,0,0,0,8.505-3.85l-3.29-3.92a6.707,6.707,0,0,1-4.97,2.38c-3.675,0-6.055-3.01-6.055-8.19,0-5.075,2.765-8.085,6.125-8.085a6.606,6.606,0,0,1,4.55,2.03l3.255-3.99a11.093,11.093,0,0,0-7.91-3.4c-6.615,0-12.425,4.97-12.425,13.65C120.295,36.94,125.895,41.49,132.51,41.49Zm20.475,0c5.04,0,9.73-3.85,9.73-10.465,0-6.58-4.69-10.43-9.73-10.43-5.075,0-9.765,3.85-9.765,10.43C143.22,37.64,147.91,41.49,152.985,41.49Zm0-5.04c-2.345,0-3.395-2.1-3.395-5.425,0-3.29,1.05-5.39,3.395-5.39,2.31,0,3.36,2.1,3.36,5.39C156.345,34.35,155.295,36.45,152.985,36.45ZM166.635,41h6.23V27.7c1.19-1.155,2.03-1.785,3.43-1.785,1.575,0,2.31.77,2.31,3.535V41h6.23V28.68c0-4.97-1.855-8.085-6.2-8.085a9.008,9.008,0,0,0-6.37,2.975h-.1l-.455-2.485h-5.075Zm28.98.49c5.425,0,8.295-2.835,8.295-6.51,0-3.6-2.765-5.04-5.25-5.985-2.065-.735-3.78-1.19-3.78-2.38,0-.945.665-1.435,2.1-1.435a7.58,7.58,0,0,1,4.13,1.68l2.765-3.71a11.384,11.384,0,0,0-7.1-2.555c-4.655,0-7.7,2.555-7.7,6.3,0,3.325,2.695,4.935,5.075,5.88,2.03.8,3.955,1.365,3.955,2.555,0,.98-.7,1.575-2.345,1.575a8.657,8.657,0,0,1-5.04-2.1L187.95,38.69A12.872,12.872,0,0,0,195.615,41.49Zm18.935,0a14.648,14.648,0,0,0,4.515-.735l-.98-4.515a5.79,5.79,0,0,1-1.82.385c-1.47,0-2.52-.875-2.52-3.08V25.95h4.69V21.085h-4.69V15.8H208.6l-.7,5.285-3.08.245v4.62h2.695v7.665C207.515,38.305,209.545,41.49,214.55,41.49Zm7.735-.49h6.23V29.625c1.015-2.625,2.8-3.57,4.27-3.57a8.591,8.591,0,0,1,2.205.315L236,21.015a5.624,5.624,0,0,0-2.415-.42c-1.995,0-4.2,1.3-5.67,3.955h-.1l-.455-3.465h-5.075Zm22.26.49a7.725,7.725,0,0,0,6.2-3.22h.14l.455,2.73h5.075V21.085h-6.23V34.14c-1.05,1.47-1.925,2.03-3.325,2.03-1.575,0-2.31-.805-2.31-3.535V21.085h-6.23V33.4C238.315,38.375,240.17,41.49,244.545,41.49Zm25.655,0a10.075,10.075,0,0,0,6.58-2.345l-2.415-4.1a5.71,5.71,0,0,1-3.465,1.4c-2.415,0-4.235-2.1-4.235-5.425,0-3.29,1.715-5.39,4.48-5.39a3.9,3.9,0,0,1,2.52,1.05l2.9-3.955a8.618,8.618,0,0,0-5.81-2.135c-5.565,0-10.465,3.85-10.465,10.43C260.295,37.64,264.6,41.49,270.2,41.49Zm17.43,0a14.648,14.648,0,0,0,4.515-.735l-.98-4.515a5.79,5.79,0,0,1-1.82.385c-1.47,0-2.52-.875-2.52-3.08V25.95h4.69V21.085h-4.69V15.8H281.68l-.7,5.285-3.08.245v4.62h2.7v7.665C280.6,38.305,282.625,41.49,287.63,41.49Zm7.735-.49h6.23V21.085h-6.23Zm3.115-22.68a3.212,3.212,0,1,0,0-6.405,3.131,3.131,0,0,0-3.465,3.185A3.138,3.138,0,0,0,298.48,18.32Zm16.765,23.17c5.04,0,9.73-3.85,9.73-10.465,0-6.58-4.69-10.43-9.73-10.43-5.075,0-9.765,3.85-9.765,10.43C305.48,37.64,310.17,41.49,315.245,41.49Zm0-5.04c-2.345,0-3.4-2.1-3.4-5.425,0-3.29,1.05-5.39,3.4-5.39,2.31,0,3.36,2.1,3.36,5.39C318.6,34.35,317.555,36.45,315.245,36.45ZM328.895,41h6.23V27.7c1.19-1.155,2.03-1.785,3.43-1.785,1.575,0,2.31.77,2.31,3.535V41h6.23V28.68c0-4.97-1.855-8.085-6.2-8.085a9.008,9.008,0,0,0-6.37,2.975h-.105l-.455-2.485h-5.075Z" transform="translate(360 1210)" fill="#002c3e"/>
  </g>
</svg>
